<svg xmlns="http://www.w3.org/2000/svg" width="128" height="125"><path fill="#4A62AC" stroke="#4A62AC" d="M46 17q3.8-1.5 3 1.5h2l1 2-3.5 1.5.5-1.5q.7-2.6-2-1.5l-1.5 3-1.5-.5 2-.5zM32.5 22l1 2-1.5.5.5 1.5q-1.2-2.3-2.5.5l4 2 1 2-2.5 3.5-1.5.5v10l6 13-.5 1.5 1.5.5-8 2.5q1.1 2.7-1.5 2l.5 1.5q1.5 5.5-1 7l.5 1.5q-2-3-8-2L18 74.5q1.8 6.2-1 8l.5 1.5-6.5-2 1-3.5-.5-1.5 1.5 2.5-.5 1.5 3.5-1.5-2-.5 1-3.5-4-2v-2l1-4.5-2-.5 2-.5q1.3-3-2.5-2v-1q5.8 1.7 4.5-2l-7-2.5L9 55l2-.5-3-1v-2l2.5-5.5 1.5-.5V40q3.7 1.5 3-1.5l.5-1.5-1.5-.5 3-1-2-1 3-.5 1-2.5-.5-1.5 3.5-1.5.5-1.5 4.5 1v-4q5.8 2 5.5-2Zm-.5 8-1 3h2l1-2zm-6 32-2 3h2zM52.5 25q4.8-1.3 3.5 2-4.2 0-3.5-2ZM57 25h9.5l3 2 2.5-1-.5 2-3-1-2-1-2 2h-6L57 26.5zM78.5 25q4.8-.7 5.5 2.5l-.5 1.5-1-2-2 1h-2l-2.5-.5zM36.5 26l.5 3-2-.5zM55.5 37l2.5 3.5-.5 1.5 3.5-1q1.3 3.3-3.5 2l-1.5-.5q1.3 4.2-3.5 2.5L49 42.5l.5-3.5 3.5 2q-1.1 2.7 1.5 2l-.5-1.5q.8-2.2-1.5-1.5v-1q3.5 1 3-2ZM6.5 46l.5 2.5H6zM5.5 51l.5 2.5H5zM115.5 55l.5 2.5h-1zM41.5 58l5.5 2.5q-1.2 2.8-2.5.5-4.5 1-5.5-1.5h2zM54.5 70l1 2z" opacity=".996"/><path fill="#4A62AC" stroke="#4A62AC" d="m9.5 71 .5 2-2-.5zM8.5 75l1.5.5L7.5 77zM28.5 75q2.8 1.3.5 2.5l1 6v4l-.5 1.5-.5-1.5.5-1.5q-3 .9-1.5-3.5l-1-2 1-3q-2.2-1.2.5-2.5ZM18.5 96l4 5zM95.5 102l-1 2zM32.5 107l1 2zM67.5 114l2.5.5-2.5.5z" opacity=".996"/><path fill="#795738" stroke="#795738" d="m52.5 2 2.5.5-2.5.5zM86.5 7 92 9.5l-1.5.5-4-2zM93.5 10l1 2zM28.5 11l-1 2zM96.5 12l4.5 3.5-2.5-1.5zM25.5 13l-1 2zM102.5 16q9.1 6.9 14.5 17.5l-2-1zM19.5 18l-2 3zM14.5 24l-2 3zM118.5 37l2.5 5.5h-1zM122.5 47l.5 3.5h-1zM123.5 52l.5 4.5 4 6.5q-3-1.2-2 2.5l2 3-1 2 1 1V79l-2 .5 2 3h-1l-.5-1.5-5.5 4.5q2.3 1.3-.5 2.5-2.2-.7-1.5 1.5h-1l3.5-9.5 1 2 .5-2.5-1-2q2.5-1.5 1-7l2-2-1-3 1-5q-3.1-3-1.5-8.5ZM1.5 57 2 68.5H1zM3.5 78l.5 2.5H3zM5.5 85 8 90.5l-2-1zM8.5 92l2.5 3.5-2-1zM116.5 93l-1 2zM114.5 96l.5 2-2-.5zM12.5 99l4 5zM112.5 99l-.5 1.5-1.5 2.5-.5-1.5zM108.5 104l-7 8-10 6 1-2q10-4 16-12ZM20.5 108l8.5 6.5-2.5-1.5q-5.2-1.8-6-5ZM11.5 109q3.8-1 2.5 2zM30.5 115l8.5 4.5-1.5.5-6-3zM8.5 117q2.6-.7 1.5 2l-2.5 1-.5-1.5zM84.5 120l-1 2-2.5-.5zM77.5 122l2.5.5-2.5.5zM50.5 123l2.5.5-2.5.5zM72.5 123l2.5.5-2.5.5zM55.5 124l14.5.5-14.5.5z" opacity=".024"/><path fill="#BFF90A" stroke="#BFF90A" d="M18.5 0q3.8-.8 4.5 1.5L21.5 4 17 3zM20 1q0 4 2 1zM43 0l2.5 1 1-1h13q4.8-1.3 6 1l1-1h9v2l2 1 .5-1.5-.5-1.5q2.3-.8 1.5 1.5L80 4q7.6-1.1 11 1-1.8 4.9 4.5 3l2.5.5.5 1.5q1.3-2.2 2.5.5l-1 2h2q-.9 3 3.5 1.5l4 4 1-1 4 2 2-1 3.5 1.5.5 3.5 1-3 2.5 1-1-4.5h2l1-5h-1q.7 2.6-2 1.5l2-3.5-.5-1.5 3.5.5v38l-2.5 6.5-.5-1.5v-2q.7-2.6-2-1.5v-4.5l-.5-2.5-2.5-1.5q-6.3-15.2-18.5-24.5l-13-8-14-4-14-2L44 4zm68 18-2 2 2 1zM30 4l4.5 1q1.8-2.7 8-1v1Q26.6 9.6 17 20.5L13.5 25 12 18.5l3.5-1.5 4.5-.5-3-1 .5-2.5 3.5 1 .5-2 2 1 3.5-1.5-1-2 5-3zM11.5 5q4.2-1.3 2.5 3.5L10.5 10 8 8.5l2-.5z" opacity=".016"/><path fill="#BFF90A" stroke="#BFF90A" d="m108 12 3 .5-3 1.5zM8 26h4v1.5L4.5 42 4 30l5-.5zM0 43h4v1.5l-3 9 1 3-1 1v12l3 15 7 13-1 2q2-1.7 4 2l8 10.5h2.5l14 9 8.5 2.5-4.5.5-4-2-3.5 2v-4h-8.5l-.5-1.5 1-3.5h-5.5l-.5-1.5q2.3-1.2-.5-2.5-5.7 1.8-3.5-4.5l-2.5-.5-1.5.5 3 2q-4.6-.6-6 2l5 .5-1.5 3q-4.8-1.3-3.5 2l3.5-1 2 5 .5-2q2.7-1.1 2 1.5v2l-1.5 2.5-2-3-6-4-2 3-.5-2-4-2.5q-.8-3 3-1.5-1.1 2.7 1.5 2l1.5.5 1-3-1-4v-2l1.5-2.5q4.4 1.5 3.5-1.5l-1.5-2.5-3.5 1-.5-7L5 96q-1.1-2.7 1.5-2v-1L4 92.5v-7l-4-3 1-2-1-1v-29l1-4zM124.5 83l1 2 1.5-.5v4l1 4-1 2 1 4-1 5 1 3v18l-3.5.5-1-2q2.3.8 1.5-1.5l-4-1.5 1-2.5-2-.5 1.5-3q2.3.8 1.5-1.5h-2l.5-1.5q-5.2 1.8-3.5-3.5h-1q1.5 5.3-3 3.5l.5-2 1.5.5q1.3-4.6-4.5-2.5l-3 4-6 4H99l-1 5q-6.8-1.1-10 2.5l.5 1.5-2 1v-2l-4.5.5.5 1.5-5-1q-1.2 2.2-6 1v-1l9-1 16-7 16.5-15.5 5-9.5 3-.5-2-1 5-1.5 1-2.5z" opacity=".016"/><path fill="#BFF90A" stroke="#BFF90A" d="M3.5 105q3-.8 1.5 3l-2 .5.5 1.5-3.5-2.5q-.8-2.6 2.5-1.5zM105 114h6v6h-6v-6ZM8.5 119l1 2q-2.8.7-1-2ZM4.5 122l5.5 2.5-9.5.5v-1zM101 123l2.5 1 1.5-.5v1.5h-4zM48.5 124l5.5.5-5.5.5z" opacity=".016"/><path fill="#5C71B2" stroke="#5C71B2" d="m26.5 16-9 10 2.5-3.5 1.5-2.5zM85.5 23l1 2zM40.5 27l-1 2zM87.5 28l.5 4.5h-1zM59.5 33l2.5.5-2.5.5zM49.5 36l-1 2zM35.5 51l3 4zM63.5 61l2.5.5-2.5.5zM32.5 63l-1 2zM42.5 63l1 2zM45.5 85l-1 2zM69.5 87l2.5.5-2.5.5zM19.5 89l.5 2.5h-1zM19.5 93l.5 2.5h-1zM21.5 97l2.5.5-2.5.5zM25.5 97l9.5.5-9.5.5z" opacity=".996"/><path fill="#3D5094" stroke="#3D5094" d="M52.5 4Q67.8 2.2 77 6.5l-2.5.5q-8-4-22-2zM47.5 5l3.5.5-3.5.5zM43.5 6l2.5.5L38.5 9V8zM81.5 8l6.5 3.5-1.5-.5-5-2zM35.5 9l1.5.5-2.5 1.5zM32.5 11l-1 2-2 1 1-2zM89.5 12l4.5 3.5-2.5-1.5zM27.5 14l-2 3zM95.5 16 107 28.5l-3-2zM23.5 17l-6 7zM16.5 25l-2 3zM56.5 25l1 2 1-1 2 2h6q5.8-1.2 7 2l.5-2 2 .5q-2.2 1.3.5 2.5l2.5-1.5.5 1.5 2-1 2.5.5 1 9Q84 43 78.5 42l-6-9q-5.2-4.4-16-3-7.8 1.2-11.5 6.5 1.1 3.3-1.5 2.5v2l-2-1-3.5 1.5.5 1.5-1-1-2.5 1.5q-1.5-4.4 1.5-3.5l-.5-1.5 3-6.5 9.5-5 1.5.5q-.9-3 3.5-1.5l2.5 1zM13.5 29l-.5 1.5L6.5 46 6 43.5l4-10zM107.5 30l4.5 8.5h-1zM112.5 40l1.5 4.5h-1zM5.5 47l.5 3.5-1 1v17Q8.9 89.6 22.5 101l10.5 7.5-1.5-.5q-9.4-4.6-15.5-12.5-7.5-9-11-22l-1-5v-17zM38.5 50l1 2zM115.5 50l.5 4.5h-1zM115.5 64l.5 5.5h-1zM114.5 71l.5 3.5h-1zM112.5 79l.5 1.5-2.5 4.5-.5-1.5zM109.5 86l-.5 1.5-1.5 2.5.5-1.5zM106.5 91l-1.5 2.5L94.5 105l-13 7v-1q14.2-5.3 22.5-16.5zM34.5 109l11.5 4.5-2.5.5-8-3zM74.5 113l2.5.5-6.5 1.5v-1zM47.5 114l3.5.5-3.5.5zM52.5 115l16.5.5-16.5.5z" opacity=".937"/><path fill="#292B47" stroke="#292B47" d="m36.5 39 4 2 3-2-.5 3.5 2 2 2.5 3.5 10 3h8l10 2q7.2 1.8 10.5 7.5 2.5 3.5 1 11-1.6 6.9-7.5 9.5-9 6-26 4L43 82l-1.5 3-4 1-2.5-1-1-2.5-1-15 1-2.5q6.3-1.5 8 2.5 1.3 5.8 5.5 8.5 6.5 5 20 3l9.5-5.5 1-9-7.5-5.5-14-1-9-2q-7.2-1.8-10.5-7.5l-1-5z" opacity=".976"/><path fill="#292B47" stroke="#292B47" d="m22.5 77 .5 17 75 .5-76 .5z" opacity=".976"/><path fill="#64769C" stroke="#64769C" d="m44.5 40 .5 2.5h-1zM79.5 42l2.5.5-2.5.5zM74.5 61l2 3zM45.5 73l1 2zM33.5 79l.5 2.5h-1zM56.5 85l3.5.5-3.5.5zM62.5 85l3.5.5-3.5.5zM23.5 86l.5 6.5h-1z"/><path fill="#546CB4" stroke="#546CB4" d="M57.5 5q3.8-1 2.5 2l-8.5 1q-1.5-2.5-3 1l-3 1 .5-1.5q-.8-2.6 2.5-1.5zM61.5 5 74 7q-1.2 3 2.5 2l3.5 1.5-2 1 3 .5-1 3.5 1.5-.5q2.3.8 1.5-1.5l2.5 1.5q2.6.8 1.5-2.5h1l.5 1.5 1.5-.5v2l.5 1.5 2.5-1.5v2l1 3-.5 1.5q3.8-1.2 2.5 2.5l1 3.5q3.8-1 5 1.5l-.5 1.5q2.6-.8 1.5 2.5l1.5-.5 2.5 1.5q1.7 4.8-2.5 3.5v1l2.5 1.5-.5 1.5q4.4-1.5 3.5 1.5l1.5-.5 1.5.5-2 1 3 2-1.5 1.5-3-1-2.5 1.5 1 2v2q.8 2.3-1.5 1.5l-2-1-3.5 2.5q-.7 2.3 1.5 1.5l3 2 2-1 1.5.5V57h-4v-1.5l1.5.5 4 1 2-1-1 2-1.5.5q1.2 2.8 2.5.5l2.5 1.5-1 2 1 2v2l-2 5 1 2.5-5-1-.5-2-5.5 7.5 3 2q1.7 4.8-2.5 3.5L99 85l.5 3 2-1-2 3h-13l-1-1q-1.8 3.8-3.5.5l.5-1.5q-4.4 1.5-3.5-1.5l-1.5.5q-2.6-.8-1.5 2.5h1l.5-1.5 1.5 2.5-25.5.5v-1l17.5-.5-4-1 6.5-1.5 1 2 2-3q7.7-1.8 11.5-7.5 4.8-5.2 3-17L86.5 55 83 52.5l1.5.5 3 1 .5-2 2.5 1 3.5-4.5-1-2.5 3-1.5-3-1 2-3-2-.5 1-3.5v-2q.8-2.6-2.5-1.5L89 32l1 2.5-1 2.5q4.1-1.3 3 2l-4-1V25.5L84.5 22l-2.5-.5 4-2-.5-1.5-3 1-2-1 .5 1.5q.8 2.3-1.5 1.5v-2q-6.1 1.1-8.5-1.5l2-4L70.5 9l-3-1-3.5.5q.8-2.2-1.5-1.5zM109 44l-2 2 4 1v-1zm-12 9q-3 2 0 3l2-1zm0 20q-1 3 2 2 1-3-2-2Zm6 1q-3 2 0 3v-2h2zM41.5 8l2.5.5-4 1.5v2h-4v1.5l-1.5-.5q-4.5-.5-5 3l-.5-2z" opacity=".996"/><path fill="#546CB4" stroke="#546CB4" d="m83.5 10 .5 2-2-.5zM27.5 16l-1 2zM23.5 18l-1 2zM96.5 18l1 2zM76.5 20l1.5.5q-1.4 3.1-6.5 2.5v-1q4.3.8 5-2ZM66.5 21l2.5.5-2.5.5zM99.5 21l2 3zM38.5 28l-2 3zM50.5 36l-2 3zM72.5 39l1.5 2.5-2-1zM47.5 40l.5 2.5h-1zM87.5 43l-1 2zM90.5 45l1 2zM61.5 47l3.5.5-3.5.5zM70.5 48l2.5.5-2.5.5zM112.5 51l.5 2-3-.5zM51.5 60l2.5.5-2.5.5zM35.5 61l4.5.5-4.5.5zM71.5 63l1 2zM73.5 71l-1 2zM30.5 75l.5 4.5h-1zM56.5 75l7.5.5-7.5.5zM26.5 76l.5 4.5h-1zM26.5 82l.5 8.5h-1zM32.5 86l1 2zM55.5 88l2.5.5-2.5.5zM52.5 98l17.5.5-17.5.5zM71.5 98l5.5.5-5.5.5zM83.5 99h13l1 1 1.5-.5-10.5 7.5-1.5-.5-.5 1.5-.5-1.5 1-3.5-3-.5 2-1-4-1zM84.5 105l-1 3 1.5.5-2 1-2-3q1.8 1.6 3.5-1.5Z" opacity=".996"/><path fill="#687BBB" stroke="#687BBB" d="m53.5 22 15.5.5-15.5.5zM76.5 22q8.8-1.7 10.5 3.5l-.5 5.5q.8-6.3-3-8-7.4-1.4-10 2L70 23.5l2.5-.5 2 1zM49.5 23l2.5.5-2.5.5zM46.5 24l1.5.5-7.5 4.5 2-3zM56.5 24l8.5.5-8.5.5zM38.5 29 37 31.5 34.5 36l-.5-1.5zM54.5 33l4.5.5-4.5.5zM62.5 33q4.8-.7 6.5 1.5l-1.5.5-5-1zM87.5 33l.5 8.5q-.7 4.3-6.5 3.5v-1q4.8.8 5.5-2.5zM51.5 34l1.5.5-5 3-1.5 5.5-.5-3.5 3.5-4.5zM70.5 35l7 9 2.5.5-2.5.5zM47.5 44l1 2zM33.5 45q1.4 7.1 7 10l3.5 1.5-1.5.5-8.5-7.5zM53.5 47l2.5.5-2.5.5zM59.5 48l6.5.5-6.5.5zM68.5 49l4.5.5-4.5.5zM74.5 50l4.5 1.5-1.5.5-3-1zM80.5 52l7.5 5.5 3 10h-1q-.6-9.9-7.5-13.5zM47.5 58l2.5.5-2.5.5zM51.5 59l4.5.5-4.5.5zM57.5 60l5.5.5-5.5.5zM66.5 61l5.5 1.5-1.5.5-4-1zM34.5 62q9-1.5 10.5 4.5l-.5 1.5-4-5q-5.5-1.5-7 1zM73.5 63q3.8 1.3 2.5 7.5L73.5 74l-5 2v-1l5.5-2q1.6-2.1 1-7.5zM31.5 65l.5 17.5h-1zM45.5 69l4 5 4.5 1.5-2.5.5-6.5-5.5zM89.5 69l.5 3.5-6.5 9.5q-4.5 4.5-13 5v-1Q83 84.5 88 75.5zM20 74l2 .5-2 1zM24.5 74l1.5 1.5v16h-1v-16zM55.5 76l11.5.5-11.5.5zM44.5 85l-2 3-1.5-.5zM49.5 86l2.5.5-2.5.5zM54.5 87l14.5.5-14.5.5zM31.5 91l12.5.5-12.5.5zM45.5 91h55l.5 1.5 1 3-2.5 2.5h-64v-1h64l.5-1.5v-2l-.5-1.5h-54z"/><path fill="#687BBB" stroke="#687BBB" d="m24.5 93 62.5.5-62.5.5z"/><path fill="#8C9ACC" stroke="#8C9ACC" d="M52.5 23h17l5 2q1.7-3.7 9-2l2.5 2.5 1 16-2.5 2.5-4 1-5.5-3.5-4.5-6.5q-5-4-16-2L47 37.5l-1 5 2.5 3.5 5 2 14 1 12 3 8.5 7.5 2 9-2 7-7.5 7.5q-9.7 6.3-28 4l-8-2q-1.4 3.6-7 3L33 85.5l-1-2V64q2.4-1.8 8.5-1l9 12q6.1 3.4 17 2l8.5-4.5 1-7-6.5-4.5-23-3q-7.4-2.6-11.5-8.5-2.7-3.3-2-10L39.5 29zm4.5 1-13 4-9 10q-1 7 1 11 4 6 13 8l19 2 6 2 4 6-1 6-5 4-8 2q-10 0-15-3l-9-12q-6-1-7 3v15l1 2q1 3 8 2l1-3 14 3 15-1 9-4q5-3 7-10 1-8-2-11l-8-7-7-2-19-2-7-4 1-8 10-6q11-1 17 3l4 8 3 1q4 1 5-2 2-11-2-16-8-1-7 2l-11-3z"/><path fill="#8C9ACC" stroke="#8C9ACC" d="m22.5 74 2.5 1.5v16l.5.5h74l.5 1.5v2l-.5 1.5h-78L20 95.5v-18zm-.5 2v19h77l-5-1-7-1H24V77z"/><path fill="#5AE601" stroke="#5AE601" d="m0 0 18 .5L17 3l3-.5-.5-1.5 3-1H43l1 4h-8.5l-1 1L30 4l1 2.5-5 3 1 2-4.5 1.5-1.5-.5q.8 2.6-2.5 1.5l-1 2 3.5 1.5-1.5-.5-4.5.5.5 1.5-3.5-.5 1 7.5H8v2.5l.5 1.5H4v12.5L0 43zm23 1-2 3 2-1zM12 5l-2 3-2 1 3 1 3-1q2-5-2-4ZM76.5 0 78 2.5 76.5 2 75 1.5zM79 0h48.5l.5.5V8l-4 .5q2.5 1.5-1 3-.7 2.6 2 1.5l.5-2 .5 3.5q-2.6 1.4-2 6l.5 1.5-3-2-2.5 4.5.5 1.5-2.5-.5q3.8-.7 3-6l-3.5-1.5-2 1-4-2 .5 1.5-.5 2.5q-2.7-1.3-.5-2.5l-3.5-3.5-1.5.5.5-1.5q-4.4 1.5-3.5-1.5h-2l1-2-3-1-.5-1.5H91q1.5-3.8-1.5-3l-1-1H80zm29 12v2l3-1zM120.5 40l2.5 1.5v2l-.5 3.5zM127.5 47l.5 7.5v2q1 4.5-1.5 5.5 1.6-1.7-1.5-3.5L123 48q2.7-1.1 2 1.5v2l.5 1.5q2.6-1.4 2-6ZM126 63q3.3-1.3 2 3.5l-3.5 2.5v-3l2 1-.5-1.5zM2.5 76l.5 1.5-2 1zM122.5 79l.5 2.5h-1zM126.5 79q2.3-.7 1.5 1.5l-1 2q2.5 1.5 1 7h-1l-1-2q2.3-1.2-.5-2.5l-1.5 3-4.5 1v-1l2.5-1.5-1-1 3.5-3.5 2.5-1.5zM.5 83l3 2 1.5-.5-1 1V93l3 .5-2 .5q-1.1 2.7 1.5 2l1.5-.5v6.5h2.5l1.5-.5 1 3.5q-3.8-1-5 1.5l1 2-1 4v2l-.5 2.5-2.5-1q1.1-3.3-3-2v-4.5l3-1.5q1.5-3.7-1.5-3L0 106zM118.5 90l2.5.5-2.5.5zM116.5 94l-1 2z" opacity=".016"/><path fill="#5AE601" stroke="#5AE601" d="m10 98 2 .5-2 1zM127.5 99l.5 4.5h-1zM14.5 102l3.5 3.5-1 1q-2.2 6.3 3.5 4.5l1.5.5.5-1.5 1 2-2.5 1.5q-.6 2.8 5.5 1.5v-2q2.8 1.3.5 2.5l-1 4.5h9v4h1.5q1.5-3.5 3-1l7 1 3-1v1l-8 1h-31L9 123.5l6.5-.5q1.3 2.2 2.5-.5l-1-2 1-2.5q-2.7-1.1-2 1.5h-1l-.5-1.5-1.5.5 1-3-1.5.5q-3.7 1-2.5-2 3.8 1 5-1.5l-1-3.5 2-.5-3-2 1.5-.5q1.3 2.3 2.5-.5zM111.5 107q5.8-2.1 4.5 2.5h-2q-.8 3 3 1.5l.5-4 .5 4q3.8-1 5 1.5.8 2.3-1.5 1.5l-1.5 3 2 .5-1 2.5 3.5-1 .5 2.5q.8 2.3-1.5 1.5v2h-18l-.5-1.5-2.5-.5H101l-.5 2h-15l-3-1-5 1-2.5-1.5 1.5-.5 5 1 5-1 2 1 1-3 8.5-1 1-5h3.5l7.5-5.5zm-6.5 7v6h6v-6zM97.5 114l-1 2z" opacity=".016"/><path fill="#5870B6" stroke="#5870B6" d="m74.5 7 8.5 3.5-.5 1.5 2-1 2.5 1q1.5 3.7-1.5 3L83 13.5q.8 2.3-1.5 1.5l-1.5.5 1-3.5-3-.5 2-1L74 9zM88.5 13 99 20l8 10.5 5 12-.5 1.5 1.5.5-2 .5 1.5 3 1.5-.5 1 12-1.5-.5-2 1-1-2 2.5-1.5-1.5-.5-2.5 1-.5 2-2-1-4 2v-1l1.5-.5-3-1.5 1.5-3 3-1 2.5 1-1-2.5v-2l1.5-2.5 1.5-.5-3-1 3-1.5q1.3-3.3-3.5-2l-1-3-1.5-.5 3-.5-.5-4-2 1-1.5-4-2-.5q2.3-1.2-.5-2.5-4.8 1.7-3.5-2.5L96 22l-3-.5 1-2-2.5-3.5-1.5.5zM113 51l-3 2h3zm-7 4-1 2h4zM56.5 21l9.5.5-9.5.5zM77.5 21l4.5.5-4.5.5zM87.5 25l.5 2.5h-1zM70.5 36l2 3zM32.5 38l.5 6.5h-1zM74.5 42l2 3zM87.5 42l-2 3zM57.5 47l3.5.5-3.5.5zM96.5 53l2.5 1.5-3.5 2.5-.5-2.5zM86.5 55l3.5 4.5h-1zM90.5 61l.5 2.5h-1zM73.5 64l1 2zM30.5 66l.5 8.5h-1zM90.5 70l.5 2.5h-1zM108.5 71l.5 2 4 1.5Q110 87 102.5 95l-2-4-16.5-.5 15.5-.5 2.5-2.5-1.5-.5-1.5.5q-1.3-4.2 3.5-2.5l3.5-1q1-3.8-1.5-5l-2 1-1-2q1.8 2.7 3.5-1.5.7-2.6-2-1.5l-.5 2q-3-1.5 0-3l3 1zM21.5 73l3.5.5-3.5.5zM97 73q3-1 2 2-3 1-2-2ZM19.5 75l.5 13.5h-1zM87.5 78l-4 5zM58.5 88l4.5.5-4.5.5zM19.5 96l1 2zM80.5 98l12.5.5-12.5.5zM95.5 98q3.3-1.1 2.5 1.5l-1.5-.5z" opacity=".996"/><path fill="#56618D" stroke="#56618D" d="m66.5 26 2 1q1.3-2.2 2.5.5l-2.5.5q-4 1-2-2ZM72.5 27l1.5 2.5-2-1zM79.5 27l2.5 1.5.5-1.5 1.5 2.5q-1.2 2.8-2.5.5l-2 1-1-2q-1.7 3.7-3.5.5zM66.5 29l-1 2-3.5-.5zM41.5 30l-1 2zM71.5 31l-1 2zM38.5 33l-1 2zM48.5 33l-3 4zM72.5 33l2 3zM84.5 34l.5 3.5h-1zM84.5 40l-1 2zM45.5 45l2 3zM57.5 50l3.5.5-3.5.5zM82.5 56l2 3zM35.5 64l3.5.5-3.5.5zM87.5 65l.5 3.5h-1zM33.5 72l.5 6.5h-1zM76.5 73l-1 2zM23.5 76l.5 9.5h-1zM84.5 76l-3 4z" opacity=".996"/><path fill="#4D65AF" stroke="#4D65AF" d="m50.5 10 2 3q1.4-2.6 6-2l1 3 4.5-1q1.1 2.7-1.5 2v1l3-1 .5 2.5h-2l-.5 3.5-1-2-19 5-9 8-1.5-.5 1 2-2 3-.5 8.5-.5-11 2-.5-2-1 1-2.5q2.7 1.1 2-1.5l-4-2 1.5-2.5H27q2.2 5.6-3.5 4l-1.5-.5-1 2 .5 1.5-3-1-.5 2.5q.8 2.6-2.5 1.5v1l3.5 1.5-1.5.5-3-1v1l1.5.5-1 2.5q-4.5-1.7-3 3.5l-.5 2.5L9 47.5l-1 4 .5 2.5 2.5.5-2 .5-2 3.5 1.5.5 2.5-1.5L9.5 60l4.5 1q1.3 3.7-4.5 2v1q3.8-1 2.5 2l-2 .5 2 .5-1 4.5 3 2-2 1 3 1-1 3.5 2 .5-3.5 1.5.5-1.5-.5-1.5-1.5 4 5.5 1q3.3-1.7 1.5-8.5l2.5-2.5 7 1q3-1.5 1.5-7.5l-.5-1.5 3-2-1.5 2.5-.5 11.5-2.5-.5-1.5-2.5q-5.2-1.2-6.5 1.5v11l-1 1v2l-.5 6.5L10 83.5v-3l-2-2-2-7 1-2-2-4 2-2-1-3-1-6 3-8L7 44l2-.5v-2l2-4-.5-1.5q1.8 2.8 3.5-1.5l-1.5-.5-1.5.5 1-2.5h4v-4h2q-1.1-2.7 1.5-2l4.5-2q-1.5-3.7 1.5-3 2.8-3.2 9.5-2.5l-3-1 2.5-1.5 2.5 1.5.5-1.5 1.5.5q-.7-2.6 2-1.5v-2h2.5q1.5 2.5 3-1zM46 17v4h1q-1-3 2-2 1-3-3-2Zm5 1-2 3h3zm-18 4q-2 3 1 2zm4 4-2 3h2zM10 71l-2 2h2zM67.5 15l1 2z" opacity=".996"/><path fill="#4D65AF" stroke="#4D65AF" d="M68.5 18v3q-4.8 1.3-3.5-2zM54.5 35h11l5.5 3 1 4q2.7-1.1 2 1.5l1 3-1.5 1.5h-2l-10-2-3 1q-1.2-2.2-6-1L48 42.5q-.7-5.7 3.5-6.5zm1.5 2-1 2-3 1h2l1 2 1-2v2l2-1zm-6 2-1 4 3 1 1-3zm10 2-3 2h4q1-3-1-2Zm-4 1-4 3h4zM33.5 50l5 8 1-2 11 5 10 1 5 2 2.5-1v3h5.5l.5 1.5-4 2 3 .5q1.1 2.7-1.5 2l-2-1-2 3-.5-1.5.5-1.5q-2.6-.8-1.5 2.5l-1.5-.5q-2.2-.7-1.5 1.5l-4.5.5L48 72q-.9-6.5-5.5-10l-1.5-.5 3.5-.5q1.3 2.3 2.5-.5L41.5 58l-2 3-3.5-.5 2-1-2-1 1-3h-2q2.5-1.5-1-3zM63 64v2l2-1zM25.5 62l.5 3-2-.5zM27.5 77l.5 2.5h-1zM29.5 77l.5 2.5h-1zM27.5 82l.5 4 2-.5q-2.2-1.2.5-2.5l3 6 3.5.5-3.5.5-2-1-4.5 1zM45.5 87l7.5 2.5-11.5.5v-1zM22.5 99h27l1 1 3-1-.5 1.5.5 1.5 3.5-2.5-.5 1.5q2.6.7 1.5-2h4.5l3.5 1.5-.5 1.5 5-1 1.5 3.5-1.5-.5-1.5.5 1 2q-2.5 1.5 1 3-3.1 1.8-1.5 3.5l-4 2q-1.5-2.5-7-1l-5 1-19-6-8-5zM71.5 112l1 2z" opacity=".996"/><path fill="#5168B1" stroke="#5168B1" d="m53.5 5 3.5.5-3.5.5zM63.5 5l2.5.5-2.5.5z" opacity=".996"/><path fill="#5168B1" stroke="#5168B1" d="M60.5 6 64 7l.5 2h4l3.5 1.5 1 3-2 4q2.4 2.6 8.5 1.5l2-1 3 1 1.5-.5-1 2 .5 1.5-4.5-1-.5-2q-1.5 3.5-3 1-2.5 3.2-8.5 2l-1.5-3q-3.3-1.1-2.5 1.5h-1l.5-3.5 1.5.5-.5-2.5-3 1-3.5-2.5q2.3-1.2-.5-2.5-4.6-.6-6 2l-2-3-6 4-3.5-1 1 2.5-1.5-.5q-2.2-.7-1.5 1.5h-2l-.5 1.5-3-2-1 2 2.5.5q-6.2-.7-9 2l.5 1.5-2.5-1q1.5 3.8-1.5 3L18 26q1.3 3-2.5 2v-1l3.5-2.5-.5-1.5 1 1 6-6 2.5-1.5-.5-1.5 2 1 1-3h2l3 1 .5-2h4q-1.2-3 2.5-2L44 7q2.7-1.1 2 1.5l-.5 1.5 5-3 4 1zm1.5 7 2 2q1-3-2-2Z" opacity=".996"/><path fill="#5168B1" stroke="#5168B1" d="m62.5 19 .5 2-6-.5zM40.5 26l-1 2zM14 29q3.3-1.1 2 3l-3-.5zM35.5 31l-1 2zM89 32l5 1-1 2.5v2q-1.1 3.3 1.5 2.5l-.5 1.5-1 2 3 1-.5 2.5-2.5-1 1 2.5-3.5 4.5-2.5-1-.5 2L72 47.5l3-1q-3.7-1.8-.5-3.5l6 4 7.5-3.5 1.5-5.5 2.5 1v-2q-3.7 1.5-3-1.5V32ZM12.5 34l1.5.5-4 3zM59.5 34l3.5.5-3.5.5zM68.5 36l3.5 2.5-.5 1.5-.5-2zM48.5 43l1 2zM54.5 46l3.5.5-3.5.5zM65.5 47l4.5.5-4.5.5zM35.5 52l3 4zM6.5 57 6 58.5l1 3-.5 4.5q-3-1.5-1.5-7.5zM54.5 61l4.5.5-4.5.5zM42.5 62l2 3zM61.5 62q5.4-1.9 4.5 1.5l-3 2q-.7-2.2 1.5-1.5v-1q-4 .7-3-1ZM68 63l6 2.5-6 .5zM74.5 67l.5 1.5-1.5 2.5-3.5-1.5zM66 71l2.5 1 2-1 1 2-3.5 1-.5-2-.5 3q-5.2 1.7-4-2l2.5 1zM25.5 73l1.5 2.5h-1zM30.5 80l.5 2.5h-1zM45.5 86l-2 3-1.5-.5zM78.5 86l.5 2 4 .5Q81.8 91 78 90l-.5-2-1 2-.5-3zM32.5 87l2.5 1.5-1.5.5zM47.5 87l2.5.5-2.5.5zM18.5 88l.5 7.5h-1zM51.5 88 71 89.5l-17.5.5-2 1v-1l1.5-.5zM37.5 89 50 90.5l-14.5.5v-1zM27.5 90l5.5.5-5.5.5zM21.5 98l27.5.5-27.5.5zM50 98l2 .5-2 1zM54.5 99l2 1 1.5-.5q.8 2.3-1.5 1.5l-1-1-2.5 1.5zM63.5 99l19.5.5-.5 1.5 3.5.5-2 1 3 .5.5 3q1.2-2.2 2.5.5h-2l-.5 1.5-1-2-1 3-2.5-1-1.5 3-13 3v-1l1.5-.5v-6l-1-2 1.5-.5 1.5.5-1.5-3.5-5 1v-2q-3 .5-2-1ZM58.5 114l6.5.5-6.5.5z" opacity=".996"/><path fill="#040C2F" stroke="#040C2F" d="M60.5 1q5.3-.8 7 2h6l15 5q13 6 21.5 16.5 8 9 12 22l2 11v12q-2.5 1.5-1 7l-6 16-14.5 17.5q-9.1 7.9-22 12l-9 2h-18q-23.4-4.6-36.5-19.5-8.7-9.3-13-23l-2-8v-19l-1-1 2-3 2-10 5-10L23.5 15l18-10zM53 4 36 9l-12 8Q8 29 4 52v17l1 5q3 13 11 22 12 15 36 20 13 2 22-1 12-3 21-10 16-12 21-35V51l-1-5-10-20Q96 14 83 8L69 4zM.5 108q3 1.5 1.5 7.5l2.5 2.5 3 2 2 1v-2H13q-1.1 2.7 1.5 2l1 2-2-1q-1.5 2.5-7 1l-2-1q-1.1 2.8-4.5 2z" opacity=".545"/></svg>