<svg width="128" height="125" version="1.1" xmlns="http://www.w3.org/2000/svg" desc="Created with imagetracer.js version 1.2.6" ><path fill="rgb(74,98,172)" stroke="rgb(74,98,172)" stroke-width="1" opacity="0.996078431372549" d="M 46 17 Q 49.8 15.5 49 18.5 L 51 18.5 L 52 20.5 L 48.5 22 L 49 20.5 Q 49.7 17.9 47 19 L 45.5 22 L 44 21.5 L 46 21 L 46 17 Z " /><path fill="rgb(74,98,172)" stroke="rgb(74,98,172)" stroke-width="1" opacity="0.996078431372549" d="M 32.5 22 L 33.5 24 L 32 24.5 L 32.5 26 Q 31.3 23.7 30 26.5 L 34 28.5 L 35 30.5 L 32.5 34 L 31 34.5 L 31 44.5 L 37 57.5 L 36.5 59 L 38 59.5 L 30 62 Q 31.1 64.7 28.5 64 L 29 65.5 Q 30.5 71 28 72.5 L 28.5 74 Q 26.5 71 20.5 72 L 18 74.5 Q 19.8 80.7 17 82.5 L 17.5 84 L 11 82 L 12 78.5 L 11.5 77 L 13 79.5 L 12.5 81 L 16 79.5 L 14 79 L 15 75.5 L 11 73.5 L 11 71.5 L 12 67 L 10 66.5 L 12 66 Q 13.3 63 9.5 64 L 9.5 63 Q 15.3 64.7 14 61 L 7 58.5 L 9 55 L 11 54.5 L 8 53.5 L 8 51.5 L 10.5 46 L 12 45.5 L 12 43.5 L 12 40 Q 15.7 41.5 15 38.5 L 15.5 37 L 14 36.5 L 17 35.5 L 15 34.5 L 18 34 L 19 31.5 L 18.5 30 L 22 28.5 L 22.5 27 L 27 28 L 27 24 Q 32.8 26 32.5 22 Z M 32 30 L 31 33 L 33 33 L 34 31 L 32 30 Z M 26 62 L 24 65 L 26 65 L 26 62 Z " /><path fill="rgb(74,98,172)" stroke="rgb(74,98,172)" stroke-width="1" opacity="0.996078431372549" d="M 52.5 25 Q 57.3 23.7 56 27 Q 51.8 27 52.5 25 Z " /><path fill="rgb(74,98,172)" stroke="rgb(74,98,172)" stroke-width="1" opacity="0.996078431372549" d="M 57 25 L 66.5 25 L 69.5 27 L 72 26 L 71.5 28 L 68.5 27 L 66.5 26 L 64.5 28 L 58.5 28 L 57 26.5 L 57 25 Z " /><path fill="rgb(74,98,172)" stroke="rgb(74,98,172)" stroke-width="1" opacity="0.996078431372549" d="M 78.5 25 Q 83.3 24.3 84 27.5 L 83.5 29 L 82.5 27 L 80.5 28 L 78.5 28 L 76 27.5 L 78.5 25 Z " /><path fill="rgb(74,98,172)" stroke="rgb(74,98,172)" stroke-width="1" opacity="0.996078431372549" d="M 36.5 26 L 37 29 L 35 28.5 L 36.5 26 Z " /><path fill="rgb(74,98,172)" stroke="rgb(74,98,172)" stroke-width="1" opacity="0.996078431372549" d="M 55.5 37 L 58 40.5 L 57.5 42 L 61 41 Q 62.3 44.3 57.5 43 L 56 42.5 Q 57.3 46.7 52.5 45 L 49 42.5 L 49.5 39 L 53 41 Q 51.9 43.7 54.5 43 L 54 41.5 Q 54.8 39.3 52.5 40 L 52.5 39 Q 56 40 55.5 37 Z " /><path fill="rgb(74,98,172)" stroke="rgb(74,98,172)" stroke-width="1" opacity="0.996078431372549" d="M 6.5 46 L 7 48.5 L 6 48.5 L 6.5 46 Z " /><path fill="rgb(74,98,172)" stroke="rgb(74,98,172)" stroke-width="1" opacity="0.996078431372549" d="M 5.5 51 L 6 53.5 L 5 53.5 L 5.5 51 Z " /><path fill="rgb(74,98,172)" stroke="rgb(74,98,172)" stroke-width="1" opacity="0.996078431372549" d="M 115.5 55 L 116 57.5 L 115 57.5 L 115.5 55 Z " /><path fill="rgb(74,98,172)" stroke="rgb(74,98,172)" stroke-width="1" opacity="0.996078431372549" d="M 41.5 58 L 47 60.5 Q 45.8 63.3 44.5 61 Q 40 62 39 59.5 L 41 59.5 L 41.5 58 Z " /><path fill="rgb(74,98,172)" stroke="rgb(74,98,172)" stroke-width="1" opacity="0.996078431372549" d="M 54.5 70 L 55.5 72 L 54.5 70 Z " /><path fill="rgb(74,98,172)" stroke="rgb(74,98,172)" stroke-width="1" opacity="0.996078431372549" d="M 9.5 71 L 10 73 L 8 72.5 L 9.5 71 Z " /><path fill="rgb(74,98,172)" stroke="rgb(74,98,172)" stroke-width="1" opacity="0.996078431372549" d="M 8.5 75 L 10 75.5 L 7.5 77 L 8.5 75 Z " /><path fill="rgb(74,98,172)" stroke="rgb(74,98,172)" stroke-width="1" opacity="0.996078431372549" d="M 28.5 75 Q 31.3 76.3 29 77.5 L 30 83.5 L 30 87.5 L 29.5 89 L 29 87.5 L 29.5 86 Q 26.5 86.9 28 82.5 L 27 80.5 L 28 77.5 Q 25.8 76.3 28.5 75 Z " /><path fill="rgb(74,98,172)" stroke="rgb(74,98,172)" stroke-width="1" opacity="0.996078431372549" d="M 18.5 96 L 22.5 101 L 18.5 96 Z " /><path fill="rgb(74,98,172)" stroke="rgb(74,98,172)" stroke-width="1" opacity="0.996078431372549" d="M 95.5 102 L 94.5 104 L 95.5 102 Z " /><path fill="rgb(74,98,172)" stroke="rgb(74,98,172)" stroke-width="1" opacity="0.996078431372549" d="M 32.5 107 L 33.5 109 L 32.5 107 Z " /><path fill="rgb(74,98,172)" stroke="rgb(74,98,172)" stroke-width="1" opacity="0.996078431372549" d="M 67.5 114 L 70 114.5 L 67.5 115 L 67.5 114 Z " /><path fill="rgb(121,87,56)" stroke="rgb(121,87,56)" stroke-width="1" opacity="0.023529411764705882" d="M 52.5 2 L 55 2.5 L 52.5 3 L 52.5 2 Z " /><path fill="rgb(121,87,56)" stroke="rgb(121,87,56)" stroke-width="1" opacity="0.023529411764705882" d="M 86.5 7 L 92 9.5 L 90.5 10 L 86.5 8 L 86.5 7 Z " /><path fill="rgb(121,87,56)" stroke="rgb(121,87,56)" stroke-width="1" opacity="0.023529411764705882" d="M 93.5 10 L 94.5 12 L 93.5 10 Z " /><path fill="rgb(121,87,56)" stroke="rgb(121,87,56)" stroke-width="1" opacity="0.023529411764705882" d="M 28.5 11 L 27.5 13 L 28.5 11 Z " /><path fill="rgb(121,87,56)" stroke="rgb(121,87,56)" stroke-width="1" opacity="0.023529411764705882" d="M 96.5 12 L 101 15.5 L 98.5 14 L 96.5 12 Z " /><path fill="rgb(121,87,56)" stroke="rgb(121,87,56)" stroke-width="1" opacity="0.023529411764705882" d="M 25.5 13 L 24.5 15 L 25.5 13 Z " /><path fill="rgb(121,87,56)" stroke="rgb(121,87,56)" stroke-width="1" opacity="0.023529411764705882" d="M 102.5 16 Q 111.6 22.9 117 33.5 L 115 32.5 L 102.5 16 Z " /><path fill="rgb(121,87,56)" stroke="rgb(121,87,56)" stroke-width="1" opacity="0.023529411764705882" d="M 19.5 18 L 17.5 21 L 19.5 18 Z " /><path fill="rgb(121,87,56)" stroke="rgb(121,87,56)" stroke-width="1" opacity="0.023529411764705882" d="M 14.5 24 L 12.5 27 L 14.5 24 Z " /><path fill="rgb(121,87,56)" stroke="rgb(121,87,56)" stroke-width="1" opacity="0.023529411764705882" d="M 118.5 37 L 121 42.5 L 120 42.5 L 118.5 37 Z " /><path fill="rgb(121,87,56)" stroke="rgb(121,87,56)" stroke-width="1" opacity="0.023529411764705882" d="M 122.5 47 L 123 50.5 L 122 50.5 L 122.5 47 Z " /><path fill="rgb(121,87,56)" stroke="rgb(121,87,56)" stroke-width="1" opacity="0.023529411764705882" d="M 123.5 52 L 124 56.5 L 128 63 Q 125 61.8 126 65.5 L 128 68.5 L 127 70.5 L 128 71.5 L 128 79 L 126 79.5 L 128 82.5 L 127 82.5 L 126.5 81 L 121 85.5 Q 123.3 86.8 120.5 88 Q 118.3 87.3 119 89.5 L 118 89.5 L 121.5 80 L 122.5 82 L 123 79.5 L 122 77.5 Q 124.5 76 123 70.5 L 125 68.5 L 124 65.5 L 125 60.5 Q 121.9 57.5 123.5 52 Z " /><path fill="rgb(121,87,56)" stroke="rgb(121,87,56)" stroke-width="1" opacity="0.023529411764705882" d="M 1.5 57 L 2 68.5 L 1 68.5 L 1.5 57 Z " /><path fill="rgb(121,87,56)" stroke="rgb(121,87,56)" stroke-width="1" opacity="0.023529411764705882" d="M 3.5 78 L 4 80.5 L 3 80.5 L 3.5 78 Z " /><path fill="rgb(121,87,56)" stroke="rgb(121,87,56)" stroke-width="1" opacity="0.023529411764705882" d="M 5.5 85 L 8 90.5 L 6 89.5 L 5.5 85 Z " /><path fill="rgb(121,87,56)" stroke="rgb(121,87,56)" stroke-width="1" opacity="0.023529411764705882" d="M 8.5 92 L 11 95.5 L 9 94.5 L 8.5 92 Z " /><path fill="rgb(121,87,56)" stroke="rgb(121,87,56)" stroke-width="1" opacity="0.023529411764705882" d="M 116.5 93 L 115.5 95 L 116.5 93 Z " /><path fill="rgb(121,87,56)" stroke="rgb(121,87,56)" stroke-width="1" opacity="0.023529411764705882" d="M 114.5 96 L 115 98 L 113 97.5 L 114.5 96 Z " /><path fill="rgb(121,87,56)" stroke="rgb(121,87,56)" stroke-width="1" opacity="0.023529411764705882" d="M 12.5 99 L 16.5 104 L 12.5 99 Z " /><path fill="rgb(121,87,56)" stroke="rgb(121,87,56)" stroke-width="1" opacity="0.023529411764705882" d="M 112.5 99 L 112 100.5 L 110.5 103 L 110 101.5 L 112.5 99 Z " /><path fill="rgb(121,87,56)" stroke="rgb(121,87,56)" stroke-width="1" opacity="0.023529411764705882" d="M 108.5 104 L 101.5 112 L 91.5 118 L 92.5 116 Q 102.5 112 108.5 104 Z " /><path fill="rgb(121,87,56)" stroke="rgb(121,87,56)" stroke-width="1" opacity="0.023529411764705882" d="M 20.5 108 L 29 114.5 L 26.5 113 Q 21.3 111.2 20.5 108 Z " /><path fill="rgb(121,87,56)" stroke="rgb(121,87,56)" stroke-width="1" opacity="0.023529411764705882" d="M 11.5 109 Q 15.3 108 14 111 L 11.5 109 Z " /><path fill="rgb(121,87,56)" stroke="rgb(121,87,56)" stroke-width="1" opacity="0.023529411764705882" d="M 30.5 115 L 39 119.5 L 37.5 120 L 31.5 117 L 30.5 115 Z " /><path fill="rgb(121,87,56)" stroke="rgb(121,87,56)" stroke-width="1" opacity="0.023529411764705882" d="M 8.5 117 Q 11.1 116.3 10 119 L 7.5 120 L 7 118.5 L 8.5 117 Z " /><path fill="rgb(121,87,56)" stroke="rgb(121,87,56)" stroke-width="1" opacity="0.023529411764705882" d="M 84.5 120 L 83.5 122 L 81 121.5 L 84.5 120 Z " /><path fill="rgb(121,87,56)" stroke="rgb(121,87,56)" stroke-width="1" opacity="0.023529411764705882" d="M 77.5 122 L 80 122.5 L 77.5 123 L 77.5 122 Z " /><path fill="rgb(121,87,56)" stroke="rgb(121,87,56)" stroke-width="1" opacity="0.023529411764705882" d="M 50.5 123 L 53 123.5 L 50.5 124 L 50.5 123 Z " /><path fill="rgb(121,87,56)" stroke="rgb(121,87,56)" stroke-width="1" opacity="0.023529411764705882" d="M 72.5 123 L 75 123.5 L 72.5 124 L 72.5 123 Z " /><path fill="rgb(121,87,56)" stroke="rgb(121,87,56)" stroke-width="1" opacity="0.023529411764705882" d="M 55.5 124 L 70 124.5 L 55.5 125 L 55.5 124 Z " /><path fill="rgb(191,249,10)" stroke="rgb(191,249,10)" stroke-width="1" opacity="0.01568627450980392" d="M 18.5 0 Q 22.3 -0.8 23 1.5 L 21.5 4 L 17 3 L 18.5 0 Z M 20 1 Q 20 5 22 2 L 20 1 Z " /><path fill="rgb(191,249,10)" stroke="rgb(191,249,10)" stroke-width="1" opacity="0.01568627450980392" d="M 43 0 L 45.5 1 L 46.5 0 L 57.5 0 L 59.5 0 Q 64.3 -1.3 65.5 1 L 66.5 0 L 75.5 0 L 75.5 2 L 77.5 3 L 78 1.5 L 77.5 0 Q 79.8 -0.8 79 1.5 L 80 4 Q 87.6 2.9 91 5 Q 89.2 9.9 95.5 8 L 98 8.5 L 98.5 10 Q 99.8 7.8 101 10.5 L 100 12.5 L 102 12.5 Q 101.1 15.5 105.5 14 L 109.5 18 L 110.5 17 L 114.5 19 L 116.5 18 L 120 19.5 L 120.5 23 L 121.5 20 L 124 21 L 123 16.5 L 125 16.5 L 126 11.5 L 125 11.5 Q 125.7 14.1 123 13 L 125 9.5 L 124.5 8 L 128 8.5 L 128 46.5 L 125.5 53 L 125 51.5 L 125 49.5 Q 125.7 46.9 123 48 L 123 43.5 L 122.5 41 L 120 39.5 Q 113.7 24.3 101.5 15 L 88.5 7 L 74.5 3 L 60.5 1 L 44 4 L 43 0 Z M 111 18 L 109 20 L 111 21 L 111 18 Z " /><path fill="rgb(191,249,10)" stroke="rgb(191,249,10)" stroke-width="1" opacity="0.01568627450980392" d="M 30 4 L 34.5 5 Q 36.3 2.3 42.5 4 L 42.5 5 Q 26.6 9.6 17 20.5 L 13.5 25 L 12 18.5 L 15.5 17 L 20 16.5 L 17 15.5 L 17.5 13 L 21 14 L 21.5 12 L 23.5 13 L 27 11.5 L 26 9.5 L 31 6.5 L 30 4 Z " /><path fill="rgb(191,249,10)" stroke="rgb(191,249,10)" stroke-width="1" opacity="0.01568627450980392" d="M 11.5 5 Q 15.7 3.7 14 8.5 L 10.5 10 L 8 8.5 L 10 8 L 11.5 5 Z " /><path fill="rgb(191,249,10)" stroke="rgb(191,249,10)" stroke-width="1" opacity="0.01568627450980392" d="M 108 12 L 111 12.5 L 108 14 L 108 12 Z " /><path fill="rgb(191,249,10)" stroke="rgb(191,249,10)" stroke-width="1" opacity="0.01568627450980392" d="M 8 26 L 12 26 L 12 27.5 L 4.5 42 L 4 30 L 9 29.5 L 8 26 Z " /><path fill="rgb(191,249,10)" stroke="rgb(191,249,10)" stroke-width="1" opacity="0.01568627450980392" d="M 0 43 L 4 43 L 4 44.5 L 1 53.5 L 2 56.5 L 1 57.5 L 1 69.5 L 4 84.5 L 11 97.5 L 10 99.5 Q 12 97.8 14 101.5 L 22 112 L 24.5 112 L 38.5 121 L 47 123.5 L 42.5 124 L 38.5 122 L 35 124 L 35 120 L 26.5 120 L 26 118.5 L 27 115 L 21.5 115 L 21 113.5 Q 23.3 112.3 20.5 111 Q 14.8 112.8 17 106.5 L 14.5 106 L 13 106.5 L 16 108.5 Q 11.4 107.9 10 110.5 L 15 111 L 13.5 114 Q 8.7 112.7 10 116 L 13.5 115 L 15.5 120 L 16 118 Q 18.7 116.9 18 119.5 L 18 121.5 L 16.5 124 L 14.5 121 L 8.5 117 L 6.5 120 L 6 118 L 2 115.5 Q 1.2 112.5 5 114 Q 3.9 116.7 6.5 116 L 8 116.5 L 9 113.5 L 8 109.5 L 8 107.5 L 9.5 105 Q 13.9 106.5 13 103.5 L 11.5 101 L 8 102 L 7.5 95 L 5 96 Q 3.9 93.3 6.5 94 L 6.5 93 L 4 92.5 L 4 85.5 L 0 82.5 L 1 80.5 L 0 79.5 L 0 52.5 L 0 50.5 L 1 46.5 L 0 43 Z " /><path fill="rgb(191,249,10)" stroke="rgb(191,249,10)" stroke-width="1" opacity="0.01568627450980392" d="M 124.5 83 L 125.5 85 L 127 84.5 L 127 88.5 L 128 92.5 L 127 94.5 L 128 98.5 L 127 103.5 L 128 106.5 L 128 124.5 L 124.5 125 L 123.5 123 Q 125.8 123.8 125 121.5 L 121 120 L 122 117.5 L 120 117 L 121.5 114 Q 123.8 114.8 123 112.5 L 121 112.5 L 121.5 111 Q 116.3 112.8 118 107.5 L 117 107.5 Q 118.5 112.8 114 111 L 114.5 109 L 116 109.5 Q 117.3 104.9 111.5 107 L 108.5 111 L 102.5 115 L 99 115 L 98 120 Q 91.2 118.9 88 122.5 L 88.5 124 L 86.5 125 L 86.5 123 L 82 123.5 L 82.5 125 L 77.5 124 Q 76.3 126.2 71.5 125 L 71.5 124 L 80.5 123 L 96.5 116 L 113 100.5 L 118 91 L 121 90.5 L 119 89.5 L 124 88 L 125 85.5 L 124.5 83 Z " /><path fill="rgb(191,249,10)" stroke="rgb(191,249,10)" stroke-width="1" opacity="0.01568627450980392" d="M 3.5 105 Q 6.5 104.2 5 108 L 3 108.5 L 3.5 110 L 0 107.5 Q -0.8 104.9 2.5 106 L 3.5 105 Z " /><path fill="rgb(191,249,10)" stroke="rgb(191,249,10)" stroke-width="1" opacity="0.01568627450980392" d="M 105 114 L 111 114 L 111 120 L 105 120 L 105 117.5 L 105 115.5 L 105 114 Z " /><path fill="rgb(191,249,10)" stroke="rgb(191,249,10)" stroke-width="1" opacity="0.01568627450980392" d="M 8.5 119 L 9.5 121 Q 6.7 121.7 8.5 119 Z " /><path fill="rgb(191,249,10)" stroke="rgb(191,249,10)" stroke-width="1" opacity="0.01568627450980392" d="M 4.5 122 L 10 124.5 L 0.5 125 L 0.5 124 L 4.5 122 Z " /><path fill="rgb(191,249,10)" stroke="rgb(191,249,10)" stroke-width="1" opacity="0.01568627450980392" d="M 101 123 L 103.5 124 L 105 123.5 L 105 125 L 101 125 L 101 123 Z " /><path fill="rgb(191,249,10)" stroke="rgb(191,249,10)" stroke-width="1" opacity="0.01568627450980392" d="M 48.5 124 L 54 124.5 L 48.5 125 L 48.5 124 Z " /><path fill="rgb(92,113,178)" stroke="rgb(92,113,178)" stroke-width="1" opacity="0.996078431372549" d="M 26.5 16 L 17.5 26 L 20 22.5 L 21.5 20 L 26.5 16 Z " /><path fill="rgb(92,113,178)" stroke="rgb(92,113,178)" stroke-width="1" opacity="0.996078431372549" d="M 85.5 23 L 86.5 25 L 85.5 23 Z " /><path fill="rgb(92,113,178)" stroke="rgb(92,113,178)" stroke-width="1" opacity="0.996078431372549" d="M 40.5 27 L 39.5 29 L 40.5 27 Z " /><path fill="rgb(92,113,178)" stroke="rgb(92,113,178)" stroke-width="1" opacity="0.996078431372549" d="M 87.5 28 L 88 32.5 L 87 32.5 L 87.5 28 Z " /><path fill="rgb(92,113,178)" stroke="rgb(92,113,178)" stroke-width="1" opacity="0.996078431372549" d="M 59.5 33 L 62 33.5 L 59.5 34 L 59.5 33 Z " /><path fill="rgb(92,113,178)" stroke="rgb(92,113,178)" stroke-width="1" opacity="0.996078431372549" d="M 49.5 36 L 48.5 38 L 49.5 36 Z " /><path fill="rgb(92,113,178)" stroke="rgb(92,113,178)" stroke-width="1" opacity="0.996078431372549" d="M 35.5 51 L 38.5 55 L 35.5 51 Z " /><path fill="rgb(92,113,178)" stroke="rgb(92,113,178)" stroke-width="1" opacity="0.996078431372549" d="M 63.5 61 L 66 61.5 L 63.5 62 L 63.5 61 Z " /><path fill="rgb(92,113,178)" stroke="rgb(92,113,178)" stroke-width="1" opacity="0.996078431372549" d="M 32.5 63 L 31.5 65 L 32.5 63 Z " /><path fill="rgb(92,113,178)" stroke="rgb(92,113,178)" stroke-width="1" opacity="0.996078431372549" d="M 42.5 63 L 43.5 65 L 42.5 63 Z " /><path fill="rgb(92,113,178)" stroke="rgb(92,113,178)" stroke-width="1" opacity="0.996078431372549" d="M 45.5 85 L 44.5 87 L 45.5 85 Z " /><path fill="rgb(92,113,178)" stroke="rgb(92,113,178)" stroke-width="1" opacity="0.996078431372549" d="M 69.5 87 L 72 87.5 L 69.5 88 L 69.5 87 Z " /><path fill="rgb(92,113,178)" stroke="rgb(92,113,178)" stroke-width="1" opacity="0.996078431372549" d="M 19.5 89 L 20 91.5 L 19 91.5 L 19.5 89 Z " /><path fill="rgb(92,113,178)" stroke="rgb(92,113,178)" stroke-width="1" opacity="0.996078431372549" d="M 19.5 93 L 20 95.5 L 19 95.5 L 19.5 93 Z " /><path fill="rgb(92,113,178)" stroke="rgb(92,113,178)" stroke-width="1" opacity="0.996078431372549" d="M 21.5 97 L 24 97.5 L 21.5 98 L 21.5 97 Z " /><path fill="rgb(92,113,178)" stroke="rgb(92,113,178)" stroke-width="1" opacity="0.996078431372549" d="M 25.5 97 L 35 97.5 L 25.5 98 L 25.5 97 Z " /><path fill="rgb(61,80,148)" stroke="rgb(61,80,148)" stroke-width="1" opacity="0.9372549019607843" d="M 52.5 4 Q 67.8 2.2 77 6.5 L 74.5 7 Q 66.5 3 52.5 5 L 52.5 4 Z " /><path fill="rgb(61,80,148)" stroke="rgb(61,80,148)" stroke-width="1" opacity="0.9372549019607843" d="M 47.5 5 L 51 5.5 L 47.5 6 L 47.5 5 Z " /><path fill="rgb(61,80,148)" stroke="rgb(61,80,148)" stroke-width="1" opacity="0.9372549019607843" d="M 43.5 6 L 46 6.5 L 38.5 9 L 38.5 8 L 43.5 6 Z " /><path fill="rgb(61,80,148)" stroke="rgb(61,80,148)" stroke-width="1" opacity="0.9372549019607843" d="M 81.5 8 L 88 11.5 L 86.5 11 L 81.5 9 L 81.5 8 Z " /><path fill="rgb(61,80,148)" stroke="rgb(61,80,148)" stroke-width="1" opacity="0.9372549019607843" d="M 35.5 9 L 37 9.5 L 34.5 11 L 35.5 9 Z " /><path fill="rgb(61,80,148)" stroke="rgb(61,80,148)" stroke-width="1" opacity="0.9372549019607843" d="M 32.5 11 L 31.5 13 L 29.5 14 L 30.5 12 L 32.5 11 Z " /><path fill="rgb(61,80,148)" stroke="rgb(61,80,148)" stroke-width="1" opacity="0.9372549019607843" d="M 89.5 12 L 94 15.5 L 91.5 14 L 89.5 12 Z " /><path fill="rgb(61,80,148)" stroke="rgb(61,80,148)" stroke-width="1" opacity="0.9372549019607843" d="M 27.5 14 L 25.5 17 L 27.5 14 Z " /><path fill="rgb(61,80,148)" stroke="rgb(61,80,148)" stroke-width="1" opacity="0.9372549019607843" d="M 95.5 16 L 107 28.5 L 104 26.5 L 95.5 16 Z " /><path fill="rgb(61,80,148)" stroke="rgb(61,80,148)" stroke-width="1" opacity="0.9372549019607843" d="M 23.5 17 L 17.5 24 L 23.5 17 Z " /><path fill="rgb(61,80,148)" stroke="rgb(61,80,148)" stroke-width="1" opacity="0.9372549019607843" d="M 16.5 25 L 14.5 28 L 16.5 25 Z " /><path fill="rgb(61,80,148)" stroke="rgb(61,80,148)" stroke-width="1" opacity="0.9372549019607843" d="M 56.5 25 L 57.5 27 L 58.5 26 L 60.5 28 L 66.5 28 Q 72.3 26.8 73.5 30 L 74 28 L 76 28.5 Q 73.8 29.8 76.5 31 L 79 29.5 L 79.5 31 L 81.5 30 L 84 30.5 L 85 39.5 Q 84 43 78.5 42 L 72.5 33 Q 67.3 28.6 56.5 30 Q 48.7 31.2 45 36.5 Q 46.1 39.8 43.5 39 L 43.5 41 L 41.5 40 L 38 41.5 L 38.5 43 L 37.5 42 L 35 43.5 Q 33.5 39.1 36.5 40 L 36 38.5 L 39 32 L 48.5 27 L 50 27.5 Q 49.1 24.5 53.5 26 L 56 27 L 56.5 25 Z " /><path fill="rgb(61,80,148)" stroke="rgb(61,80,148)" stroke-width="1" opacity="0.9372549019607843" d="M 13.5 29 L 13 30.5 L 6.5 46 L 6 43.5 L 10 33.5 L 13.5 29 Z " /><path fill="rgb(61,80,148)" stroke="rgb(61,80,148)" stroke-width="1" opacity="0.9372549019607843" d="M 107.5 30 L 112 38.5 L 111 38.5 L 107.5 30 Z " /><path fill="rgb(61,80,148)" stroke="rgb(61,80,148)" stroke-width="1" opacity="0.9372549019607843" d="M 112.5 40 L 114 44.5 L 113 44.5 L 112.5 40 Z " /><path fill="rgb(61,80,148)" stroke="rgb(61,80,148)" stroke-width="1" opacity="0.9372549019607843" d="M 5.5 47 L 6 50.5 L 5 51.5 L 5 68.5 Q 8.9 89.6 22.5 101 L 33 108.5 L 31.5 108 Q 22.1 103.4 16 95.5 Q 8.5 86.5 5 73.5 L 4 68.5 L 4 51.5 L 5.5 47 Z " /><path fill="rgb(61,80,148)" stroke="rgb(61,80,148)" stroke-width="1" opacity="0.9372549019607843" d="M 38.5 50 L 39.5 52 L 38.5 50 Z " /><path fill="rgb(61,80,148)" stroke="rgb(61,80,148)" stroke-width="1" opacity="0.9372549019607843" d="M 115.5 50 L 116 54.5 L 115 54.5 L 115.5 50 Z " /><path fill="rgb(61,80,148)" stroke="rgb(61,80,148)" stroke-width="1" opacity="0.9372549019607843" d="M 115.5 64 L 116 69.5 L 115 69.5 L 115.5 64 Z " /><path fill="rgb(61,80,148)" stroke="rgb(61,80,148)" stroke-width="1" opacity="0.9372549019607843" d="M 114.5 71 L 115 74.5 L 114 74.5 L 114.5 71 Z " /><path fill="rgb(61,80,148)" stroke="rgb(61,80,148)" stroke-width="1" opacity="0.9372549019607843" d="M 112.5 79 L 113 80.5 L 110.5 85 L 110 83.5 L 112.5 79 Z " /><path fill="rgb(61,80,148)" stroke="rgb(61,80,148)" stroke-width="1" opacity="0.9372549019607843" d="M 109.5 86 L 109 87.5 L 107.5 90 L 108 88.5 L 109.5 86 Z " /><path fill="rgb(61,80,148)" stroke="rgb(61,80,148)" stroke-width="1" opacity="0.9372549019607843" d="M 106.5 91 L 105 93.5 L 94.5 105 L 81.5 112 L 81.5 111 Q 95.7 105.7 104 94.5 L 106.5 91 Z " /><path fill="rgb(61,80,148)" stroke="rgb(61,80,148)" stroke-width="1" opacity="0.9372549019607843" d="M 34.5 109 L 46 113.5 L 43.5 114 L 35.5 111 L 34.5 109 Z " /><path fill="rgb(61,80,148)" stroke="rgb(61,80,148)" stroke-width="1" opacity="0.9372549019607843" d="M 74.5 113 L 77 113.5 L 70.5 115 L 70.5 114 L 74.5 113 Z " /><path fill="rgb(61,80,148)" stroke="rgb(61,80,148)" stroke-width="1" opacity="0.9372549019607843" d="M 47.5 114 L 51 114.5 L 47.5 115 L 47.5 114 Z " /><path fill="rgb(61,80,148)" stroke="rgb(61,80,148)" stroke-width="1" opacity="0.9372549019607843" d="M 52.5 115 L 69 115.5 L 52.5 116 L 52.5 115 Z " /><path fill="rgb(41,43,71)" stroke="rgb(41,43,71)" stroke-width="1" opacity="0.9764705882352941" d="M 36.5 39 L 40.5 41 L 43.5 39 L 43 42.5 L 45 44.5 L 47.5 48 L 57.5 51 L 65.5 51 L 75.5 53 Q 82.7 54.8 86 60.5 Q 88.5 64 87 71.5 Q 85.4 78.4 79.5 81 Q 70.5 87 53.5 85 L 43 82 L 41.5 85 L 37.5 86 L 35 85 L 34 82.5 L 33 67.5 L 34 65 Q 40.3 63.5 42 67.5 Q 43.3 73.3 47.5 76 Q 54 81 67.5 79 L 77 73.5 L 78 64.5 L 70.5 59 L 56.5 58 L 47.5 56 Q 40.3 54.2 37 48.5 L 36 43.5 L 36.5 39 Z " /><path fill="rgb(41,43,71)" stroke="rgb(41,43,71)" stroke-width="1" opacity="0.9764705882352941" d="M 22.5 77 L 23 94 L 98 94.5 L 22 95 L 22.5 77 Z " /><path fill="rgb(100,118,156)" stroke="rgb(100,118,156)" stroke-width="1" opacity="1" d="M 44.5 40 L 45 42.5 L 44 42.5 L 44.5 40 Z " /><path fill="rgb(100,118,156)" stroke="rgb(100,118,156)" stroke-width="1" opacity="1" d="M 79.5 42 L 82 42.5 L 79.5 43 L 79.5 42 Z " /><path fill="rgb(100,118,156)" stroke="rgb(100,118,156)" stroke-width="1" opacity="1" d="M 74.5 61 L 76.5 64 L 74.5 61 Z " /><path fill="rgb(100,118,156)" stroke="rgb(100,118,156)" stroke-width="1" opacity="1" d="M 45.5 73 L 46.5 75 L 45.5 73 Z " /><path fill="rgb(100,118,156)" stroke="rgb(100,118,156)" stroke-width="1" opacity="1" d="M 33.5 79 L 34 81.5 L 33 81.5 L 33.5 79 Z " /><path fill="rgb(100,118,156)" stroke="rgb(100,118,156)" stroke-width="1" opacity="1" d="M 56.5 85 L 60 85.5 L 56.5 86 L 56.5 85 Z " /><path fill="rgb(100,118,156)" stroke="rgb(100,118,156)" stroke-width="1" opacity="1" d="M 62.5 85 L 66 85.5 L 62.5 86 L 62.5 85 Z " /><path fill="rgb(100,118,156)" stroke="rgb(100,118,156)" stroke-width="1" opacity="1" d="M 23.5 86 L 24 92.5 L 23 92.5 L 23.5 86 Z " /><path fill="rgb(84,108,180)" stroke="rgb(84,108,180)" stroke-width="1" opacity="0.996078431372549" d="M 57.5 5 Q 61.3 4 60 7 L 51.5 8 Q 50 5.5 48.5 9 L 45.5 10 L 46 8.5 Q 45.2 5.9 48.5 7 L 57.5 5 Z " /><path fill="rgb(84,108,180)" stroke="rgb(84,108,180)" stroke-width="1" opacity="0.996078431372549" d="M 61.5 5 L 74 7 Q 72.8 10 76.5 9 L 80 10.5 L 78 11.5 L 81 12 L 80 15.5 L 81.5 15 Q 83.8 15.8 83 13.5 L 85.5 15 Q 88.1 15.8 87 12.5 L 88 12.5 L 88.5 14 L 90 13.5 L 90 15.5 L 90.5 17 L 93 15.5 L 93 17.5 L 94 20.5 L 93.5 22 Q 97.3 20.8 96 24.5 L 97 28 Q 100.8 27 102 29.5 L 101.5 31 Q 104.1 30.2 103 33.5 L 104.5 33 L 107 34.5 Q 108.7 39.3 104.5 38 L 104.5 39 L 107 40.5 L 106.5 42 Q 110.9 40.5 110 43.5 L 111.5 43 L 113 43.5 L 111 44.5 L 114 46.5 L 112.5 48 L 109.5 47 L 107 48.5 L 108 50.5 L 108 52.5 Q 108.8 54.8 106.5 54 L 104.5 53 L 101 55.5 Q 100.3 57.8 102.5 57 L 105.5 59 L 107.5 58 L 109 58.5 L 109 57 L 105 57 L 105 55.5 L 106.5 56 L 110.5 57 L 112.5 56 L 111.5 58 L 110 58.5 Q 111.2 61.3 112.5 59 L 115 60.5 L 114 62.5 L 115 64.5 L 115 66.5 L 113 71.5 L 114 74 L 109 73 L 108.5 71 L 103 78.5 L 106 80.5 Q 107.7 85.3 103.5 84 L 99 85 L 99.5 88 L 101.5 87 L 99.5 90 L 86.5 90 L 85.5 89 Q 83.7 92.8 82 89.5 L 82.5 88 Q 78.1 89.5 79 86.5 L 77.5 87 Q 74.9 86.2 76 89.5 L 77 89.5 L 77.5 88 L 79 90.5 L 53.5 91 L 53.5 90 L 71 89.5 L 67 88.5 L 73.5 87 L 74.5 89 L 76.5 86 Q 84.2 84.2 88 78.5 Q 92.8 73.3 91 61.5 L 86.5 55 L 83 52.5 L 84.5 53 L 87.5 54 L 88 52 L 90.5 53 L 94 48.5 L 93 46 L 96 44.5 L 93 43.5 L 95 40.5 L 93 40 L 94 36.5 L 94 34.5 Q 94.8 31.9 91.5 33 L 89 32 L 90 34.5 L 89 37 Q 93.1 35.7 92 39 L 88 38 L 88 25.5 L 84.5 22 L 82 21.5 L 86 19.5 L 85.5 18 L 82.5 19 L 80.5 18 L 81 19.5 Q 81.8 21.8 79.5 21 L 79.5 19 Q 73.4 20.1 71 17.5 L 73 13.5 L 70.5 9 L 67.5 8 L 64 8.5 Q 64.8 6.3 62.5 7 L 61.5 5 Z M 109 44 L 107 46 L 111 47 L 111 46 L 109 44 Z M 97 53 Q 94 55 97 56 L 99 55 L 97 53 Z M 97 73 Q 96 76 99 75 Q 100 72 97 73 Z M 103 74 Q 100 76 103 77 L 103 75 L 105 75 L 103 74 Z " /><path fill="rgb(84,108,180)" stroke="rgb(84,108,180)" stroke-width="1" opacity="0.996078431372549" d="M 41.5 8 L 44 8.5 L 40 10 L 40 12 L 36 12 L 36 13.5 L 34.5 13 Q 30 12.5 29.5 16 L 29 14 L 41.5 8 Z " /><path fill="rgb(84,108,180)" stroke="rgb(84,108,180)" stroke-width="1" opacity="0.996078431372549" d="M 83.5 10 L 84 12 L 82 11.5 L 83.5 10 Z " /><path fill="rgb(84,108,180)" stroke="rgb(84,108,180)" stroke-width="1" opacity="0.996078431372549" d="M 27.5 16 L 26.5 18 L 27.5 16 Z " /><path fill="rgb(84,108,180)" stroke="rgb(84,108,180)" stroke-width="1" opacity="0.996078431372549" d="M 23.5 18 L 22.5 20 L 23.5 18 Z " /><path fill="rgb(84,108,180)" stroke="rgb(84,108,180)" stroke-width="1" opacity="0.996078431372549" d="M 96.5 18 L 97.5 20 L 96.5 18 Z " /><path fill="rgb(84,108,180)" stroke="rgb(84,108,180)" stroke-width="1" opacity="0.996078431372549" d="M 76.5 20 L 78 20.5 Q 76.6 23.6 71.5 23 L 71.5 22 Q 75.8 22.8 76.5 20 Z " /><path fill="rgb(84,108,180)" stroke="rgb(84,108,180)" stroke-width="1" opacity="0.996078431372549" d="M 66.5 21 L 69 21.5 L 66.5 22 L 66.5 21 Z " /><path fill="rgb(84,108,180)" stroke="rgb(84,108,180)" stroke-width="1" opacity="0.996078431372549" d="M 99.5 21 L 101.5 24 L 99.5 21 Z " /><path fill="rgb(84,108,180)" stroke="rgb(84,108,180)" stroke-width="1" opacity="0.996078431372549" d="M 38.5 28 L 36.5 31 L 38.5 28 Z " /><path fill="rgb(84,108,180)" stroke="rgb(84,108,180)" stroke-width="1" opacity="0.996078431372549" d="M 50.5 36 L 48.5 39 L 50.5 36 Z " /><path fill="rgb(84,108,180)" stroke="rgb(84,108,180)" stroke-width="1" opacity="0.996078431372549" d="M 72.5 39 L 74 41.5 L 72 40.5 L 72.5 39 Z " /><path fill="rgb(84,108,180)" stroke="rgb(84,108,180)" stroke-width="1" opacity="0.996078431372549" d="M 47.5 40 L 48 42.5 L 47 42.5 L 47.5 40 Z " /><path fill="rgb(84,108,180)" stroke="rgb(84,108,180)" stroke-width="1" opacity="0.996078431372549" d="M 87.5 43 L 86.5 45 L 87.5 43 Z " /><path fill="rgb(84,108,180)" stroke="rgb(84,108,180)" stroke-width="1" opacity="0.996078431372549" d="M 90.5 45 L 91.5 47 L 90.5 45 Z " /><path fill="rgb(84,108,180)" stroke="rgb(84,108,180)" stroke-width="1" opacity="0.996078431372549" d="M 61.5 47 L 65 47.5 L 61.5 48 L 61.5 47 Z " /><path fill="rgb(84,108,180)" stroke="rgb(84,108,180)" stroke-width="1" opacity="0.996078431372549" d="M 70.5 48 L 73 48.5 L 70.5 49 L 70.5 48 Z " /><path fill="rgb(84,108,180)" stroke="rgb(84,108,180)" stroke-width="1" opacity="0.996078431372549" d="M 112.5 51 L 113 53 L 110 52.5 L 112.5 51 Z " /><path fill="rgb(84,108,180)" stroke="rgb(84,108,180)" stroke-width="1" opacity="0.996078431372549" d="M 51.5 60 L 54 60.5 L 51.5 61 L 51.5 60 Z " /><path fill="rgb(84,108,180)" stroke="rgb(84,108,180)" stroke-width="1" opacity="0.996078431372549" d="M 35.5 61 L 40 61.5 L 35.5 62 L 35.5 61 Z " /><path fill="rgb(84,108,180)" stroke="rgb(84,108,180)" stroke-width="1" opacity="0.996078431372549" d="M 71.5 63 L 72.5 65 L 71.5 63 Z " /><path fill="rgb(84,108,180)" stroke="rgb(84,108,180)" stroke-width="1" opacity="0.996078431372549" d="M 73.5 71 L 72.5 73 L 73.5 71 Z " /><path fill="rgb(84,108,180)" stroke="rgb(84,108,180)" stroke-width="1" opacity="0.996078431372549" d="M 30.5 75 L 31 79.5 L 30 79.5 L 30.5 75 Z " /><path fill="rgb(84,108,180)" stroke="rgb(84,108,180)" stroke-width="1" opacity="0.996078431372549" d="M 56.5 75 L 64 75.5 L 56.5 76 L 56.5 75 Z " /><path fill="rgb(84,108,180)" stroke="rgb(84,108,180)" stroke-width="1" opacity="0.996078431372549" d="M 26.5 76 L 27 80.5 L 26 80.5 L 26.5 76 Z " /><path fill="rgb(84,108,180)" stroke="rgb(84,108,180)" stroke-width="1" opacity="0.996078431372549" d="M 26.5 82 L 27 90.5 L 26 90.5 L 26.5 82 Z " /><path fill="rgb(84,108,180)" stroke="rgb(84,108,180)" stroke-width="1" opacity="0.996078431372549" d="M 32.5 86 L 33.5 88 L 32.5 86 Z " /><path fill="rgb(84,108,180)" stroke="rgb(84,108,180)" stroke-width="1" opacity="0.996078431372549" d="M 55.5 88 L 58 88.5 L 55.5 89 L 55.5 88 Z " /><path fill="rgb(84,108,180)" stroke="rgb(84,108,180)" stroke-width="1" opacity="0.996078431372549" d="M 52.5 98 L 70 98.5 L 52.5 99 L 52.5 98 Z " /><path fill="rgb(84,108,180)" stroke="rgb(84,108,180)" stroke-width="1" opacity="0.996078431372549" d="M 71.5 98 L 77 98.5 L 71.5 99 L 71.5 98 Z " /><path fill="rgb(84,108,180)" stroke="rgb(84,108,180)" stroke-width="1" opacity="0.996078431372549" d="M 83.5 99 L 96.5 99 L 97.5 100 L 99 99.5 L 88.5 107 L 87 106.5 L 86.5 108 L 86 106.5 L 87 103 L 84 102.5 L 86 101.5 L 82 100.5 L 83.5 99 Z " /><path fill="rgb(84,108,180)" stroke="rgb(84,108,180)" stroke-width="1" opacity="0.996078431372549" d="M 84.5 105 L 83.5 108 L 85 108.5 L 83 109.5 L 81 106.5 Q 82.8 108.1 84.5 105 Z " /><path fill="rgb(104,123,187)" stroke="rgb(104,123,187)" stroke-width="1" opacity="1" d="M 53.5 22 L 69 22.5 L 53.5 23 L 53.5 22 Z " /><path fill="rgb(104,123,187)" stroke="rgb(104,123,187)" stroke-width="1" opacity="1" d="M 76.5 22 Q 85.3 20.3 87 25.5 L 86.5 31 Q 87.3 24.7 83.5 23 Q 76.1 21.6 73.5 25 L 70 23.5 L 72.5 23 L 74.5 24 L 76.5 22 Z " /><path fill="rgb(104,123,187)" stroke="rgb(104,123,187)" stroke-width="1" opacity="1" d="M 49.5 23 L 52 23.5 L 49.5 24 L 49.5 23 Z " /><path fill="rgb(104,123,187)" stroke="rgb(104,123,187)" stroke-width="1" opacity="1" d="M 46.5 24 L 48 24.5 L 40.5 29 L 42.5 26 L 46.5 24 Z " /><path fill="rgb(104,123,187)" stroke="rgb(104,123,187)" stroke-width="1" opacity="1" d="M 56.5 24 L 65 24.5 L 56.5 25 L 56.5 24 Z " /><path fill="rgb(104,123,187)" stroke="rgb(104,123,187)" stroke-width="1" opacity="1" d="M 38.5 29 L 37 31.5 L 34.5 36 L 34 34.5 L 38.5 29 Z " /><path fill="rgb(104,123,187)" stroke="rgb(104,123,187)" stroke-width="1" opacity="1" d="M 54.5 33 L 59 33.5 L 54.5 34 L 54.5 33 Z " /><path fill="rgb(104,123,187)" stroke="rgb(104,123,187)" stroke-width="1" opacity="1" d="M 62.5 33 Q 67.3 32.3 69 34.5 L 67.5 35 L 62.5 34 L 62.5 33 Z " /><path fill="rgb(104,123,187)" stroke="rgb(104,123,187)" stroke-width="1" opacity="1" d="M 87.5 33 L 88 41.5 Q 87.3 45.8 81.5 45 L 81.5 44 Q 86.3 44.8 87 41.5 L 87.5 33 Z " /><path fill="rgb(104,123,187)" stroke="rgb(104,123,187)" stroke-width="1" opacity="1" d="M 51.5 34 L 53 34.5 L 48 37.5 L 46.5 43 L 46 39.5 L 49.5 35 L 51.5 34 Z " /><path fill="rgb(104,123,187)" stroke="rgb(104,123,187)" stroke-width="1" opacity="1" d="M 70.5 35 L 77.5 44 L 80 44.5 L 77.5 45 L 70.5 35 Z " /><path fill="rgb(104,123,187)" stroke="rgb(104,123,187)" stroke-width="1" opacity="1" d="M 47.5 44 L 48.5 46 L 47.5 44 Z " /><path fill="rgb(104,123,187)" stroke="rgb(104,123,187)" stroke-width="1" opacity="1" d="M 33.5 45 Q 34.9 52.1 40.5 55 L 44 56.5 L 42.5 57 L 34 49.5 L 33.5 45 Z " /><path fill="rgb(104,123,187)" stroke="rgb(104,123,187)" stroke-width="1" opacity="1" d="M 53.5 47 L 56 47.5 L 53.5 48 L 53.5 47 Z " /><path fill="rgb(104,123,187)" stroke="rgb(104,123,187)" stroke-width="1" opacity="1" d="M 59.5 48 L 66 48.5 L 59.5 49 L 59.5 48 Z " /><path fill="rgb(104,123,187)" stroke="rgb(104,123,187)" stroke-width="1" opacity="1" d="M 68.5 49 L 73 49.5 L 68.5 50 L 68.5 49 Z " /><path fill="rgb(104,123,187)" stroke="rgb(104,123,187)" stroke-width="1" opacity="1" d="M 74.5 50 L 79 51.5 L 77.5 52 L 74.5 51 L 74.5 50 Z " /><path fill="rgb(104,123,187)" stroke="rgb(104,123,187)" stroke-width="1" opacity="1" d="M 80.5 52 L 88 57.5 L 91 67.5 L 90 67.5 Q 89.4 57.6 82.5 54 L 80.5 52 Z " /><path fill="rgb(104,123,187)" stroke="rgb(104,123,187)" stroke-width="1" opacity="1" d="M 47.5 58 L 50 58.5 L 47.5 59 L 47.5 58 Z " /><path fill="rgb(104,123,187)" stroke="rgb(104,123,187)" stroke-width="1" opacity="1" d="M 51.5 59 L 56 59.5 L 51.5 60 L 51.5 59 Z " /><path fill="rgb(104,123,187)" stroke="rgb(104,123,187)" stroke-width="1" opacity="1" d="M 57.5 60 L 63 60.5 L 57.5 61 L 57.5 60 Z " /><path fill="rgb(104,123,187)" stroke="rgb(104,123,187)" stroke-width="1" opacity="1" d="M 66.5 61 L 72 62.5 L 70.5 63 L 66.5 62 L 66.5 61 Z " /><path fill="rgb(104,123,187)" stroke="rgb(104,123,187)" stroke-width="1" opacity="1" d="M 34.5 62 Q 43.5 60.5 45 66.5 L 44.5 68 L 40.5 63 Q 35 61.5 33.5 64 L 34.5 62 Z " /><path fill="rgb(104,123,187)" stroke="rgb(104,123,187)" stroke-width="1" opacity="1" d="M 73.5 63 Q 77.3 64.3 76 70.5 L 73.5 74 L 68.5 76 L 68.5 75 L 74 73 Q 75.6 70.9 75 65.5 L 73.5 63 Z " /><path fill="rgb(104,123,187)" stroke="rgb(104,123,187)" stroke-width="1" opacity="1" d="M 31.5 65 L 32 82.5 L 31 82.5 L 31.5 65 Z " /><path fill="rgb(104,123,187)" stroke="rgb(104,123,187)" stroke-width="1" opacity="1" d="M 45.5 69 L 49.5 74 L 54 75.5 L 51.5 76 L 45 70.5 L 45.5 69 Z " /><path fill="rgb(104,123,187)" stroke="rgb(104,123,187)" stroke-width="1" opacity="1" d="M 89.5 69 L 90 72.5 L 83.5 82 Q 79 86.5 70.5 87 L 70.5 86 Q 83 84.5 88 75.5 L 89.5 69 Z " /><path fill="rgb(104,123,187)" stroke="rgb(104,123,187)" stroke-width="1" opacity="1" d="M 20 74 L 22 74.5 L 20 75.5 L 20 74 Z " /><path fill="rgb(104,123,187)" stroke="rgb(104,123,187)" stroke-width="1" opacity="1" d="M 24.5 74 L 26 75.5 L 26 91.5 L 25 91.5 L 25 75.5 L 24.5 74 Z " /><path fill="rgb(104,123,187)" stroke="rgb(104,123,187)" stroke-width="1" opacity="1" d="M 55.5 76 L 67 76.5 L 55.5 77 L 55.5 76 Z " /><path fill="rgb(104,123,187)" stroke="rgb(104,123,187)" stroke-width="1" opacity="1" d="M 44.5 85 L 42.5 88 L 41 87.5 L 44.5 85 Z " /><path fill="rgb(104,123,187)" stroke="rgb(104,123,187)" stroke-width="1" opacity="1" d="M 49.5 86 L 52 86.5 L 49.5 87 L 49.5 86 Z " /><path fill="rgb(104,123,187)" stroke="rgb(104,123,187)" stroke-width="1" opacity="1" d="M 54.5 87 L 69 87.5 L 54.5 88 L 54.5 87 Z " /><path fill="rgb(104,123,187)" stroke="rgb(104,123,187)" stroke-width="1" opacity="1" d="M 31.5 91 L 44 91.5 L 31.5 92 L 31.5 91 Z " /><path fill="rgb(104,123,187)" stroke="rgb(104,123,187)" stroke-width="1" opacity="1" d="M 45.5 91 L 100.5 91 L 101 92.5 L 102 95.5 L 99.5 98 L 35.5 98 L 35.5 97 L 99.5 97 L 100 95.5 L 100 93.5 L 99.5 92 L 45.5 92 L 45.5 91 Z " /><path fill="rgb(104,123,187)" stroke="rgb(104,123,187)" stroke-width="1" opacity="1" d="M 24.5 93 L 87 93.5 L 24.5 94 L 24.5 93 Z " /><path fill="rgb(140,154,204)" stroke="rgb(140,154,204)" stroke-width="1" opacity="1" d="M 52.5 23 L 69.5 23 L 74.5 25 Q 76.2 21.3 83.5 23 L 86 25.5 L 87 41.5 L 84.5 44 L 80.5 45 L 75 41.5 L 70.5 35 Q 65.5 31 54.5 33 L 47 37.5 L 46 42.5 L 48.5 46 L 53.5 48 L 67.5 49 L 79.5 52 L 88 59.5 L 90 68.5 L 88 75.5 L 80.5 83 Q 70.8 89.3 52.5 87 L 44.5 85 Q 43.1 88.6 37.5 88 L 33 85.5 L 32 83.5 L 32 64 Q 34.4 62.2 40.5 63 L 49.5 75 Q 55.6 78.4 66.5 77 L 75 72.5 L 76 65.5 L 69.5 61 L 46.5 58 Q 39.1 55.4 35 49.5 Q 32.3 46.2 33 39.5 L 39.5 29 L 52.5 23 Z M 57 24 L 44 28 L 35 38 Q 34 45 36 49 Q 40 55 49 57 L 68 59 L 74 61 L 78 67 L 77 73 L 72 77 L 64 79 Q 54 79 49 76 L 40 64 Q 34 63 33 67 L 33 82 L 34 84 Q 35 87 42 86 L 43 83 L 57 86 L 72 85 L 81 81 Q 86 78 88 71 Q 89 63 86 60 L 78 53 L 71 51 L 52 49 L 45 45 L 46 37 L 56 31 Q 67 30 73 34 L 77 42 L 80 43 Q 84 44 85 41 Q 87 30 83 25 Q 75 24 76 27 L 65 24 L 57 24 Z " /><path fill="rgb(140,154,204)" stroke="rgb(140,154,204)" stroke-width="1" opacity="1" d="M 22.5 74 L 25 75.5 L 25 91.5 L 25.5 92 L 99.5 92 L 100 93.5 L 100 95.5 L 99.5 97 L 21.5 97 L 20 95.5 L 20 79.5 L 20 77.5 L 22.5 74 Z M 22 76 L 22 95 L 99 95 L 94 94 L 87 93 L 25 93 L 24 93 L 24 77 L 22 76 Z " /><path fill="rgb(90,230,1)" stroke="rgb(90,230,1)" stroke-width="1" opacity="0.01568627450980392" d="M 0 0 L 18 0.5 L 17 3 L 20 2.5 L 19.5 1 L 22.5 0 L 43 0 L 44 4 L 35.5 4 L 34.5 5 L 30 4 L 31 6.5 L 26 9.5 L 27 11.5 L 22.5 13 L 21 12.5 Q 21.8 15.1 18.5 14 L 17.5 16 L 21 17.5 L 19.5 17 L 15 17.5 L 15.5 19 L 12 18.5 L 13 26 L 8 26 L 8 28.5 L 8.5 30 L 4 30 L 4 42.5 L 0 43 L 0 0 Z M 23 1 L 21 4 L 23 3 L 23 1 Z M 12 5 L 10 8 L 8 9 L 11 10 L 14 9 Q 16 4 12 5 Z " /><path fill="rgb(90,230,1)" stroke="rgb(90,230,1)" stroke-width="1" opacity="0.01568627450980392" d="M 76.5 0 L 78 2.5 L 76.5 2 L 75 1.5 L 76.5 0 Z " /><path fill="rgb(90,230,1)" stroke="rgb(90,230,1)" stroke-width="1" opacity="0.01568627450980392" d="M 79 0 L 127.5 0 L 128 0.5 L 128 8 L 124 8.5 Q 126.5 10 123 11.5 Q 122.3 14.1 125 13 L 125.5 11 L 126 14.5 Q 123.4 15.9 124 20.5 L 124.5 22 L 121.5 20 L 119 24.5 L 119.5 26 L 117 25.5 Q 120.8 24.8 120 19.5 L 116.5 18 L 114.5 19 L 110.5 17 L 111 18.5 L 110.5 21 Q 107.8 19.7 110 18.5 L 106.5 15 L 105 15.5 L 105.5 14 Q 101.1 15.5 102 12.5 L 100 12.5 L 101 10.5 L 98 9.5 L 97.5 8 L 95.5 8 L 91 8 Q 92.5 4.2 89.5 5 L 88.5 4 L 80 4 L 79 0 Z M 108 12 L 108 14 L 111 13 L 108 12 Z " /><path fill="rgb(90,230,1)" stroke="rgb(90,230,1)" stroke-width="1" opacity="0.01568627450980392" d="M 120.5 40 L 123 41.5 L 123 43.5 L 122.5 47 L 120.5 40 Z " /><path fill="rgb(90,230,1)" stroke="rgb(90,230,1)" stroke-width="1" opacity="0.01568627450980392" d="M 127.5 47 L 128 54.5 L 128 56.5 Q 129 61 126.5 62 Q 128.1 60.3 125 58.5 L 123 48 Q 125.7 46.9 125 49.5 L 125 51.5 L 125.5 53 Q 128.1 51.6 127.5 47 Z " /><path fill="rgb(90,230,1)" stroke="rgb(90,230,1)" stroke-width="1" opacity="0.01568627450980392" d="M 126 63 Q 129.3 61.7 128 66.5 L 124.5 69 L 124.5 66 L 126.5 67 L 126 65.5 L 126 63 Z " /><path fill="rgb(90,230,1)" stroke="rgb(90,230,1)" stroke-width="1" opacity="0.01568627450980392" d="M 2.5 76 L 3 77.5 L 1 78.5 L 2.5 76 Z " /><path fill="rgb(90,230,1)" stroke="rgb(90,230,1)" stroke-width="1" opacity="0.01568627450980392" d="M 122.5 79 L 123 81.5 L 122 81.5 L 122.5 79 Z " /><path fill="rgb(90,230,1)" stroke="rgb(90,230,1)" stroke-width="1" opacity="0.01568627450980392" d="M 126.5 79 Q 128.8 78.3 128 80.5 L 127 82.5 Q 129.5 84 128 89.5 L 127 89.5 L 126 87.5 Q 128.3 86.3 125.5 85 L 124 88 L 119.5 89 L 119.5 88 L 122 86.5 L 121 85.5 L 124.5 82 L 127 80.5 L 126.5 79 Z " /><path fill="rgb(90,230,1)" stroke="rgb(90,230,1)" stroke-width="1" opacity="0.01568627450980392" d="M 0.5 83 L 3.5 85 L 5 84.5 L 4 85.5 L 4 93 L 7 93.5 L 5 94 Q 3.9 96.7 6.5 96 L 8 95.5 L 8 102 L 10.5 102 L 12 101.5 L 13 105 Q 9.2 104 8 106.5 L 9 108.5 L 8 112.5 L 8 114.5 L 7.5 117 L 5 116 Q 6.1 112.7 2 114 L 2 109.5 L 5 108 Q 6.5 104.3 3.5 105 L 0 106 L 0.5 83 Z " /><path fill="rgb(90,230,1)" stroke="rgb(90,230,1)" stroke-width="1" opacity="0.01568627450980392" d="M 118.5 90 L 121 90.5 L 118.5 91 L 118.5 90 Z " /><path fill="rgb(90,230,1)" stroke="rgb(90,230,1)" stroke-width="1" opacity="0.01568627450980392" d="M 116.5 94 L 115.5 96 L 116.5 94 Z " /><path fill="rgb(90,230,1)" stroke="rgb(90,230,1)" stroke-width="1" opacity="0.01568627450980392" d="M 10 98 L 12 98.5 L 10 99.5 L 10 98 Z " /><path fill="rgb(90,230,1)" stroke="rgb(90,230,1)" stroke-width="1" opacity="0.01568627450980392" d="M 127.5 99 L 128 103.5 L 127 103.5 L 127.5 99 Z " /><path fill="rgb(90,230,1)" stroke="rgb(90,230,1)" stroke-width="1" opacity="0.01568627450980392" d="M 14.5 102 L 18 105.5 L 17 106.5 Q 14.8 112.8 20.5 111 L 22 111.5 L 22.5 110 L 23.5 112 L 21 113.5 Q 20.4 116.3 26.5 115 L 26.5 113 Q 29.3 114.3 27 115.5 L 26 120 L 35 120 L 35 124 L 36.5 124 Q 38 120.5 39.5 123 L 46.5 124 L 49.5 123 L 49.5 124 L 41.5 125 L 39.5 125 L 10.5 125 L 9 123.5 L 15.5 123 Q 16.8 125.2 18 122.5 L 17 120.5 L 18 118 Q 15.3 116.9 16 119.5 L 15 119.5 L 14.5 118 L 13 118.5 L 14 115.5 L 12.5 116 Q 8.8 117 10 114 Q 13.8 115 15 112.5 L 14 109 L 16 108.5 L 13 106.5 L 14.5 106 Q 15.8 108.3 17 105.5 L 14.5 102 Z " /><path fill="rgb(90,230,1)" stroke="rgb(90,230,1)" stroke-width="1" opacity="0.01568627450980392" d="M 111.5 107 Q 117.3 104.9 116 109.5 L 114 109.5 Q 113.2 112.5 117 111 L 117.5 107 L 118 111 Q 121.8 110 123 112.5 Q 123.8 114.8 121.5 114 L 120 117 L 122 117.5 L 121 120 L 124.5 119 L 125 121.5 Q 125.8 123.8 123.5 123 L 123.5 125 L 105.5 125 L 105 123.5 L 102.5 123 L 101 123 L 100.5 125 L 87.5 125 L 85.5 125 L 82.5 124 L 77.5 125 L 75 123.5 L 76.5 123 L 81.5 124 L 86.5 123 L 88.5 124 L 89.5 121 L 98 120 L 99 115 L 102.5 115 L 110 109.5 L 111.5 107 Z M 105 114 L 105 116 L 105 118 L 105 120 L 111 120 L 111 114 L 105 114 Z " /><path fill="rgb(90,230,1)" stroke="rgb(90,230,1)" stroke-width="1" opacity="0.01568627450980392" d="M 97.5 114 L 96.5 116 L 97.5 114 Z " /><path fill="rgb(88,112,182)" stroke="rgb(88,112,182)" stroke-width="1" opacity="0.996078431372549" d="M 74.5 7 L 83 10.5 L 82.5 12 L 84.5 11 L 87 12 Q 88.5 15.7 85.5 15 L 83 13.5 Q 83.8 15.8 81.5 15 L 80 15.5 L 81 12 L 78 11.5 L 80 10.5 L 74 9 L 74.5 7 Z " /><path fill="rgb(88,112,182)" stroke="rgb(88,112,182)" stroke-width="1" opacity="0.996078431372549" d="M 88.5 13 L 99 20 L 107 30.5 L 112 42.5 L 111.5 44 L 113 44.5 L 111 45 L 112.5 48 L 114 47.5 L 115 59.5 L 113.5 59 L 111.5 60 L 110.5 58 L 113 56.5 L 111.5 56 L 109 57 L 108.5 59 L 106.5 58 L 102.5 60 L 102.5 59 L 104 58.5 L 101 57 L 102.5 54 L 105.5 53 L 108 54 L 107 51.5 L 107 49.5 L 108.5 47 L 110 46.5 L 107 45.5 L 110 44 Q 111.3 40.7 106.5 42 L 105.5 39 L 104 38.5 L 107 38 L 106.5 34 L 104.5 35 L 103 31 L 101 30.5 Q 103.3 29.3 100.5 28 Q 95.7 29.7 97 25.5 L 96 22 L 93 21.5 L 94 19.5 L 91.5 16 L 90 16.5 L 88.5 13 Z M 113 51 L 110 53 L 113 53 L 113 51 Z M 106 55 L 105 57 L 109 57 L 106 55 Z " /><path fill="rgb(88,112,182)" stroke="rgb(88,112,182)" stroke-width="1" opacity="0.996078431372549" d="M 56.5 21 L 66 21.5 L 56.5 22 L 56.5 21 Z " /><path fill="rgb(88,112,182)" stroke="rgb(88,112,182)" stroke-width="1" opacity="0.996078431372549" d="M 77.5 21 L 82 21.5 L 77.5 22 L 77.5 21 Z " /><path fill="rgb(88,112,182)" stroke="rgb(88,112,182)" stroke-width="1" opacity="0.996078431372549" d="M 87.5 25 L 88 27.5 L 87 27.5 L 87.5 25 Z " /><path fill="rgb(88,112,182)" stroke="rgb(88,112,182)" stroke-width="1" opacity="0.996078431372549" d="M 70.5 36 L 72.5 39 L 70.5 36 Z " /><path fill="rgb(88,112,182)" stroke="rgb(88,112,182)" stroke-width="1" opacity="0.996078431372549" d="M 32.5 38 L 33 44.5 L 32 44.5 L 32.5 38 Z " /><path fill="rgb(88,112,182)" stroke="rgb(88,112,182)" stroke-width="1" opacity="0.996078431372549" d="M 74.5 42 L 76.5 45 L 74.5 42 Z " /><path fill="rgb(88,112,182)" stroke="rgb(88,112,182)" stroke-width="1" opacity="0.996078431372549" d="M 87.5 42 L 85.5 45 L 87.5 42 Z " /><path fill="rgb(88,112,182)" stroke="rgb(88,112,182)" stroke-width="1" opacity="0.996078431372549" d="M 57.5 47 L 61 47.5 L 57.5 48 L 57.5 47 Z " /><path fill="rgb(88,112,182)" stroke="rgb(88,112,182)" stroke-width="1" opacity="0.996078431372549" d="M 96.5 53 L 99 54.5 L 95.5 57 L 95 54.5 L 96.5 53 Z " /><path fill="rgb(88,112,182)" stroke="rgb(88,112,182)" stroke-width="1" opacity="0.996078431372549" d="M 86.5 55 L 90 59.5 L 89 59.5 L 86.5 55 Z " /><path fill="rgb(88,112,182)" stroke="rgb(88,112,182)" stroke-width="1" opacity="0.996078431372549" d="M 90.5 61 L 91 63.5 L 90 63.5 L 90.5 61 Z " /><path fill="rgb(88,112,182)" stroke="rgb(88,112,182)" stroke-width="1" opacity="0.996078431372549" d="M 73.5 64 L 74.5 66 L 73.5 64 Z " /><path fill="rgb(88,112,182)" stroke="rgb(88,112,182)" stroke-width="1" opacity="0.996078431372549" d="M 30.5 66 L 31 74.5 L 30 74.5 L 30.5 66 Z " /><path fill="rgb(88,112,182)" stroke="rgb(88,112,182)" stroke-width="1" opacity="0.996078431372549" d="M 90.5 70 L 91 72.5 L 90 72.5 L 90.5 70 Z " /><path fill="rgb(88,112,182)" stroke="rgb(88,112,182)" stroke-width="1" opacity="0.996078431372549" d="M 108.5 71 L 109 73 L 113 74.5 Q 110 87 102.5 95 L 100.5 91 L 84 90.5 L 99.5 90 L 102 87.5 L 100.5 87 L 99 87.5 Q 97.7 83.3 102.5 85 L 106 84 Q 107 80.2 104.5 79 L 102.5 80 L 101.5 78 Q 103.3 80.7 105 76.5 Q 105.7 73.9 103 75 L 102.5 77 Q 99.5 75.5 102.5 74 L 105.5 75 L 108.5 71 Z " /><path fill="rgb(88,112,182)" stroke="rgb(88,112,182)" stroke-width="1" opacity="0.996078431372549" d="M 21.5 73 L 25 73.5 L 21.5 74 L 21.5 73 Z " /><path fill="rgb(88,112,182)" stroke="rgb(88,112,182)" stroke-width="1" opacity="0.996078431372549" d="M 97 73 Q 100 72 99 75 Q 96 76 97 73 Z " /><path fill="rgb(88,112,182)" stroke="rgb(88,112,182)" stroke-width="1" opacity="0.996078431372549" d="M 19.5 75 L 20 88.5 L 19 88.5 L 19.5 75 Z " /><path fill="rgb(88,112,182)" stroke="rgb(88,112,182)" stroke-width="1" opacity="0.996078431372549" d="M 87.5 78 L 83.5 83 L 87.5 78 Z " /><path fill="rgb(88,112,182)" stroke="rgb(88,112,182)" stroke-width="1" opacity="0.996078431372549" d="M 58.5 88 L 63 88.5 L 58.5 89 L 58.5 88 Z " /><path fill="rgb(88,112,182)" stroke="rgb(88,112,182)" stroke-width="1" opacity="0.996078431372549" d="M 19.5 96 L 20.5 98 L 19.5 96 Z " /><path fill="rgb(88,112,182)" stroke="rgb(88,112,182)" stroke-width="1" opacity="0.996078431372549" d="M 80.5 98 L 93 98.5 L 80.5 99 L 80.5 98 Z " /><path fill="rgb(88,112,182)" stroke="rgb(88,112,182)" stroke-width="1" opacity="0.996078431372549" d="M 95.5 98 Q 98.8 96.9 98 99.5 L 96.5 99 L 95.5 98 Z " /><path fill="rgb(86,97,141)" stroke="rgb(86,97,141)" stroke-width="1" opacity="0.996078431372549" d="M 66.5 26 L 68.5 27 Q 69.8 24.8 71 27.5 L 68.5 28 Q 64.5 29 66.5 26 Z " /><path fill="rgb(86,97,141)" stroke="rgb(86,97,141)" stroke-width="1" opacity="0.996078431372549" d="M 72.5 27 L 74 29.5 L 72 28.5 L 72.5 27 Z " /><path fill="rgb(86,97,141)" stroke="rgb(86,97,141)" stroke-width="1" opacity="0.996078431372549" d="M 79.5 27 L 82 28.5 L 82.5 27 L 84 29.5 Q 82.8 32.3 81.5 30 L 79.5 31 L 78.5 29 Q 76.8 32.7 75 29.5 L 79.5 27 Z " /><path fill="rgb(86,97,141)" stroke="rgb(86,97,141)" stroke-width="1" opacity="0.996078431372549" d="M 66.5 29 L 65.5 31 L 62 30.5 L 66.5 29 Z " /><path fill="rgb(86,97,141)" stroke="rgb(86,97,141)" stroke-width="1" opacity="0.996078431372549" d="M 41.5 30 L 40.5 32 L 41.5 30 Z " /><path fill="rgb(86,97,141)" stroke="rgb(86,97,141)" stroke-width="1" opacity="0.996078431372549" d="M 71.5 31 L 70.5 33 L 71.5 31 Z " /><path fill="rgb(86,97,141)" stroke="rgb(86,97,141)" stroke-width="1" opacity="0.996078431372549" d="M 38.5 33 L 37.5 35 L 38.5 33 Z " /><path fill="rgb(86,97,141)" stroke="rgb(86,97,141)" stroke-width="1" opacity="0.996078431372549" d="M 48.5 33 L 45.5 37 L 48.5 33 Z " /><path fill="rgb(86,97,141)" stroke="rgb(86,97,141)" stroke-width="1" opacity="0.996078431372549" d="M 72.5 33 L 74.5 36 L 72.5 33 Z " /><path fill="rgb(86,97,141)" stroke="rgb(86,97,141)" stroke-width="1" opacity="0.996078431372549" d="M 84.5 34 L 85 37.5 L 84 37.5 L 84.5 34 Z " /><path fill="rgb(86,97,141)" stroke="rgb(86,97,141)" stroke-width="1" opacity="0.996078431372549" d="M 84.5 40 L 83.5 42 L 84.5 40 Z " /><path fill="rgb(86,97,141)" stroke="rgb(86,97,141)" stroke-width="1" opacity="0.996078431372549" d="M 45.5 45 L 47.5 48 L 45.5 45 Z " /><path fill="rgb(86,97,141)" stroke="rgb(86,97,141)" stroke-width="1" opacity="0.996078431372549" d="M 57.5 50 L 61 50.5 L 57.5 51 L 57.5 50 Z " /><path fill="rgb(86,97,141)" stroke="rgb(86,97,141)" stroke-width="1" opacity="0.996078431372549" d="M 82.5 56 L 84.5 59 L 82.5 56 Z " /><path fill="rgb(86,97,141)" stroke="rgb(86,97,141)" stroke-width="1" opacity="0.996078431372549" d="M 35.5 64 L 39 64.5 L 35.5 65 L 35.5 64 Z " /><path fill="rgb(86,97,141)" stroke="rgb(86,97,141)" stroke-width="1" opacity="0.996078431372549" d="M 87.5 65 L 88 68.5 L 87 68.5 L 87.5 65 Z " /><path fill="rgb(86,97,141)" stroke="rgb(86,97,141)" stroke-width="1" opacity="0.996078431372549" d="M 33.5 72 L 34 78.5 L 33 78.5 L 33.5 72 Z " /><path fill="rgb(86,97,141)" stroke="rgb(86,97,141)" stroke-width="1" opacity="0.996078431372549" d="M 76.5 73 L 75.5 75 L 76.5 73 Z " /><path fill="rgb(86,97,141)" stroke="rgb(86,97,141)" stroke-width="1" opacity="0.996078431372549" d="M 23.5 76 L 24 85.5 L 23 85.5 L 23.5 76 Z " /><path fill="rgb(86,97,141)" stroke="rgb(86,97,141)" stroke-width="1" opacity="0.996078431372549" d="M 84.5 76 L 81.5 80 L 84.5 76 Z " /><path fill="rgb(77,101,175)" stroke="rgb(77,101,175)" stroke-width="1" opacity="0.996078431372549" d="M 50.5 10 L 52.5 13 Q 53.9 10.4 58.5 11 L 59.5 14 L 64 13 Q 65.1 15.7 62.5 15 L 62.5 16 L 65.5 15 L 66 17.5 L 64 17.5 L 63.5 21 L 62.5 19 L 43.5 24 L 34.5 32 L 33 31.5 L 34 33.5 L 32 36.5 L 31.5 45 L 31 34 L 33 33.5 L 31 32.5 L 32 30 Q 34.7 31.1 34 28.5 L 30 26.5 L 31.5 24 L 27 24 Q 29.2 29.6 23.5 28 L 22 27.5 L 21 29.5 L 21.5 31 L 18.5 30 L 18 32.5 Q 18.8 35.1 15.5 34 L 15.5 35 L 19 36.5 L 17.5 37 L 14.5 36 L 14.5 37 L 16 37.5 L 15 40 Q 10.5 38.3 12 43.5 L 11.5 46 L 9 47.5 L 8 51.5 L 8.5 54 L 11 54.5 L 9 55 L 7 58.5 L 8.5 59 L 11 57.5 L 9.5 60 L 14 61 Q 15.3 64.7 9.5 63 L 9.5 64 Q 13.3 63 12 66 L 10 66.5 L 12 67 L 11 71.5 L 14 73.5 L 12 74.5 L 15 75.5 L 14 79 L 16 79.5 L 12.5 81 L 13 79.5 L 12.5 78 L 11 82 L 16.5 83 Q 19.8 81.3 18 74.5 L 20.5 72 L 27.5 73 Q 30.5 71.5 29 65.5 L 28.5 64 L 31.5 62 L 30 64.5 L 29.5 76 L 27 75.5 L 25.5 73 Q 20.3 71.8 19 74.5 L 19 85.5 L 18 86.5 L 18 88.5 L 17.5 95 L 10 83.5 L 10 80.5 L 8 78.5 L 6 71.5 L 7 69.5 L 5 65.5 L 7 63.5 L 6 60.5 L 5 54.5 L 8 46.5 L 7 44 L 9 43.5 L 9 41.5 L 11 37.5 L 10.5 36 Q 12.3 38.8 14 34.5 L 12.5 34 L 11 34.5 L 12 32 L 16 32 L 16 28 L 18 28 Q 16.9 25.3 19.5 26 L 24 24 Q 22.5 20.3 25.5 21 Q 28.3 17.8 35 18.5 L 32 17.5 L 34.5 16 L 37 17.5 L 37.5 16 L 39 16.5 Q 38.3 13.9 41 15 L 41 13 L 43.5 13 Q 45 15.5 46.5 12 L 50.5 10 Z M 46 17 L 46 21 L 47 21 Q 46 18 49 19 Q 50 16 46 17 Z M 51 18 L 49 21 L 52 21 L 51 18 Z M 33 22 Q 31 25 34 24 L 33 22 Z M 37 26 L 35 29 L 37 29 L 37 26 Z M 10 71 L 8 73 L 10 73 L 10 71 Z " /><path fill="rgb(77,101,175)" stroke="rgb(77,101,175)" stroke-width="1" opacity="0.996078431372549" d="M 67.5 15 L 68.5 17 L 67.5 15 Z " /><path fill="rgb(77,101,175)" stroke="rgb(77,101,175)" stroke-width="1" opacity="0.996078431372549" d="M 68.5 18 L 68.5 21 Q 63.7 22.3 65 19 L 68.5 18 Z " /><path fill="rgb(77,101,175)" stroke="rgb(77,101,175)" stroke-width="1" opacity="0.996078431372549" d="M 54.5 35 L 65.5 35 L 71 38 L 72 42 Q 74.7 40.9 74 43.5 L 75 46.5 L 73.5 48 L 71.5 48 L 61.5 46 L 58.5 47 Q 57.3 44.8 52.5 46 L 48 42.5 Q 47.3 36.8 51.5 36 L 54.5 35 Z M 56 37 L 55 39 L 52 40 L 54 40 L 55 42 L 56 40 L 56 42 L 58 41 L 56 37 Z M 50 39 L 49 43 L 52 44 L 53 41 L 50 39 Z M 60 41 L 57 43 L 61 43 Q 62 40 60 41 Z M 56 42 L 52 45 L 56 45 L 56 42 Z " /><path fill="rgb(77,101,175)" stroke="rgb(77,101,175)" stroke-width="1" opacity="0.996078431372549" d="M 33.5 50 L 38.5 58 L 39.5 56 L 50.5 61 L 60.5 62 L 65.5 64 L 68 63 L 68 66 L 73.5 66 L 74 67.5 L 70 69.5 L 73 70 Q 74.1 72.7 71.5 72 L 69.5 71 L 67.5 74 L 67 72.5 L 67.5 71 Q 64.9 70.2 66 73.5 L 64.5 73 Q 62.3 72.3 63 74.5 L 58.5 75 L 48 72 Q 47.1 65.5 42.5 62 L 41 61.5 L 44.5 61 Q 45.8 63.3 47 60.5 L 41.5 58 L 39.5 61 L 36 60.5 L 38 59.5 L 36 58.5 L 37 55.5 L 35 55.5 Q 37.5 54 34 52.5 L 33.5 50 Z M 63 64 L 63 66 L 65 65 L 63 64 Z " /><path fill="rgb(77,101,175)" stroke="rgb(77,101,175)" stroke-width="1" opacity="0.996078431372549" d="M 25.5 62 L 26 65 L 24 64.5 L 25.5 62 Z " /><path fill="rgb(77,101,175)" stroke="rgb(77,101,175)" stroke-width="1" opacity="0.996078431372549" d="M 27.5 77 L 28 79.5 L 27 79.5 L 27.5 77 Z " /><path fill="rgb(77,101,175)" stroke="rgb(77,101,175)" stroke-width="1" opacity="0.996078431372549" d="M 29.5 77 L 30 79.5 L 29 79.5 L 29.5 77 Z " /><path fill="rgb(77,101,175)" stroke="rgb(77,101,175)" stroke-width="1" opacity="0.996078431372549" d="M 27.5 82 L 28 86 L 30 85.5 Q 27.8 84.3 30.5 83 L 33.5 89 L 37 89.5 L 33.5 90 L 31.5 89 L 27 90 L 27.5 82 Z " /><path fill="rgb(77,101,175)" stroke="rgb(77,101,175)" stroke-width="1" opacity="0.996078431372549" d="M 45.5 87 L 53 89.5 L 41.5 90 L 41.5 89 L 45.5 87 Z " /><path fill="rgb(77,101,175)" stroke="rgb(77,101,175)" stroke-width="1" opacity="0.996078431372549" d="M 22.5 99 L 49.5 99 L 50.5 100 L 53.5 99 L 53 100.5 L 53.5 102 L 57 99.5 L 56.5 101 Q 59.1 101.7 58 99 L 62.5 99 L 66 100.5 L 65.5 102 L 70.5 101 L 72 104.5 L 70.5 104 L 69 104.5 L 70 106.5 Q 67.5 108 71 109.5 Q 67.9 111.3 69.5 113 L 65.5 115 Q 64 112.5 58.5 114 L 53.5 115 L 34.5 109 L 26.5 104 L 22.5 99 Z " /><path fill="rgb(77,101,175)" stroke="rgb(77,101,175)" stroke-width="1" opacity="0.996078431372549" d="M 71.5 112 L 72.5 114 L 71.5 112 Z " /><path fill="rgb(81,104,177)" stroke="rgb(81,104,177)" stroke-width="1" opacity="0.996078431372549" d="M 53.5 5 L 57 5.5 L 53.5 6 L 53.5 5 Z " /><path fill="rgb(81,104,177)" stroke="rgb(81,104,177)" stroke-width="1" opacity="0.996078431372549" d="M 63.5 5 L 66 5.5 L 63.5 6 L 63.5 5 Z " /><path fill="rgb(81,104,177)" stroke="rgb(81,104,177)" stroke-width="1" opacity="0.996078431372549" d="M 60.5 6 L 64 7 L 64.5 9 L 68.5 9 L 72 10.5 L 73 13.5 L 71 17.5 Q 73.4 20.1 79.5 19 L 81.5 18 L 84.5 19 L 86 18.5 L 85 20.5 L 85.5 22 L 81 21 L 80.5 19 Q 79 22.5 77.5 20 Q 75 23.2 69 22 L 67.5 19 Q 64.2 17.9 65 20.5 L 64 20.5 L 64.5 17 L 66 17.5 L 65.5 15 L 62.5 16 L 59 13.5 Q 61.3 12.3 58.5 11 Q 53.9 10.4 52.5 13 L 50.5 10 L 44.5 14 L 41 13 L 42 15.5 L 40.5 15 Q 38.3 14.3 39 16.5 L 37 16.5 L 36.5 18 L 33.5 16 L 32.5 18 L 35 18.5 Q 28.8 17.8 26 20.5 L 26.5 22 L 24 21 Q 25.5 24.8 22.5 24 L 18 26 Q 19.3 29 15.5 28 L 15.5 27 L 19 24.5 L 18.5 23 L 19.5 24 L 25.5 18 L 28 16.5 L 27.5 15 L 29.5 16 L 30.5 13 L 32.5 13 L 35.5 14 L 36 12 L 40 12 Q 38.8 9 42.5 10 L 44 7 Q 46.7 5.9 46 8.5 L 45.5 10 L 50.5 7 L 54.5 8 L 60.5 6 Z M 62 13 L 64 15 Q 65 12 62 13 Z " /><path fill="rgb(81,104,177)" stroke="rgb(81,104,177)" stroke-width="1" opacity="0.996078431372549" d="M 62.5 19 L 63 21 L 57 20.5 L 62.5 19 Z " /><path fill="rgb(81,104,177)" stroke="rgb(81,104,177)" stroke-width="1" opacity="0.996078431372549" d="M 40.5 26 L 39.5 28 L 40.5 26 Z " /><path fill="rgb(81,104,177)" stroke="rgb(81,104,177)" stroke-width="1" opacity="0.996078431372549" d="M 14 29 Q 17.3 27.9 16 32 L 13 31.5 L 14 29 Z " /><path fill="rgb(81,104,177)" stroke="rgb(81,104,177)" stroke-width="1" opacity="0.996078431372549" d="M 35.5 31 L 34.5 33 L 35.5 31 Z " /><path fill="rgb(81,104,177)" stroke="rgb(81,104,177)" stroke-width="1" opacity="0.996078431372549" d="M 89 32 L 94 33 L 93 35.5 L 93 37.5 Q 91.9 40.8 94.5 40 L 94 41.5 L 93 43.5 L 96 44.5 L 95.5 47 L 93 46 L 94 48.5 L 90.5 53 L 88 52 L 87.5 54 L 72 47.5 L 75 46.5 Q 71.3 44.7 74.5 43 L 80.5 47 L 88 43.5 L 89.5 38 L 92 39 L 92 37 Q 88.3 38.5 89 35.5 L 89 33.5 L 89 32 Z " /><path fill="rgb(81,104,177)" stroke="rgb(81,104,177)" stroke-width="1" opacity="0.996078431372549" d="M 12.5 34 L 14 34.5 L 10 37.5 L 12.5 34 Z " /><path fill="rgb(81,104,177)" stroke="rgb(81,104,177)" stroke-width="1" opacity="0.996078431372549" d="M 59.5 34 L 63 34.5 L 59.5 35 L 59.5 34 Z " /><path fill="rgb(81,104,177)" stroke="rgb(81,104,177)" stroke-width="1" opacity="0.996078431372549" d="M 68.5 36 L 72 38.5 L 71.5 40 L 71 38 L 68.5 36 Z " /><path fill="rgb(81,104,177)" stroke="rgb(81,104,177)" stroke-width="1" opacity="0.996078431372549" d="M 48.5 43 L 49.5 45 L 48.5 43 Z " /><path fill="rgb(81,104,177)" stroke="rgb(81,104,177)" stroke-width="1" opacity="0.996078431372549" d="M 54.5 46 L 58 46.5 L 54.5 47 L 54.5 46 Z " /><path fill="rgb(81,104,177)" stroke="rgb(81,104,177)" stroke-width="1" opacity="0.996078431372549" d="M 65.5 47 L 70 47.5 L 65.5 48 L 65.5 47 Z " /><path fill="rgb(81,104,177)" stroke="rgb(81,104,177)" stroke-width="1" opacity="0.996078431372549" d="M 35.5 52 L 38.5 56 L 35.5 52 Z " /><path fill="rgb(81,104,177)" stroke="rgb(81,104,177)" stroke-width="1" opacity="0.996078431372549" d="M 6.5 57 L 6 58.5 L 7 61.5 L 6.5 66 Q 3.5 64.5 5 58.5 L 6.5 57 Z " /><path fill="rgb(81,104,177)" stroke="rgb(81,104,177)" stroke-width="1" opacity="0.996078431372549" d="M 54.5 61 L 59 61.5 L 54.5 62 L 54.5 61 Z " /><path fill="rgb(81,104,177)" stroke="rgb(81,104,177)" stroke-width="1" opacity="0.996078431372549" d="M 42.5 62 L 44.5 65 L 42.5 62 Z " /><path fill="rgb(81,104,177)" stroke="rgb(81,104,177)" stroke-width="1" opacity="0.996078431372549" d="M 61.5 62 Q 66.9 60.1 66 63.5 L 63 65.5 Q 62.3 63.3 64.5 64 L 64.5 63 Q 60.5 63.7 61.5 62 Z " /><path fill="rgb(81,104,177)" stroke="rgb(81,104,177)" stroke-width="1" opacity="0.996078431372549" d="M 68 63 L 74 65.5 L 68 66 L 68 63 Z " /><path fill="rgb(81,104,177)" stroke="rgb(81,104,177)" stroke-width="1" opacity="0.996078431372549" d="M 74.5 67 L 75 68.5 L 73.5 71 L 70 69.5 L 74.5 67 Z " /><path fill="rgb(81,104,177)" stroke="rgb(81,104,177)" stroke-width="1" opacity="0.996078431372549" d="M 66 71 L 68.5 72 L 70.5 71 L 71.5 73 L 68 74 L 67.5 72 L 67 75 Q 61.8 76.7 63 73 L 65.5 74 L 66 71 Z " /><path fill="rgb(81,104,177)" stroke="rgb(81,104,177)" stroke-width="1" opacity="0.996078431372549" d="M 25.5 73 L 27 75.5 L 26 75.5 L 25.5 73 Z " /><path fill="rgb(81,104,177)" stroke="rgb(81,104,177)" stroke-width="1" opacity="0.996078431372549" d="M 30.5 80 L 31 82.5 L 30 82.5 L 30.5 80 Z " /><path fill="rgb(81,104,177)" stroke="rgb(81,104,177)" stroke-width="1" opacity="0.996078431372549" d="M 45.5 86 L 43.5 89 L 42 88.5 L 45.5 86 Z " /><path fill="rgb(81,104,177)" stroke="rgb(81,104,177)" stroke-width="1" opacity="0.996078431372549" d="M 78.5 86 L 79 88 L 83 88.5 Q 81.8 91 78 90 L 77.5 88 L 76.5 90 L 76 87 L 78.5 86 Z " /><path fill="rgb(81,104,177)" stroke="rgb(81,104,177)" stroke-width="1" opacity="0.996078431372549" d="M 32.5 87 L 35 88.5 L 33.5 89 L 32.5 87 Z " /><path fill="rgb(81,104,177)" stroke="rgb(81,104,177)" stroke-width="1" opacity="0.996078431372549" d="M 47.5 87 L 50 87.5 L 47.5 88 L 47.5 87 Z " /><path fill="rgb(81,104,177)" stroke="rgb(81,104,177)" stroke-width="1" opacity="0.996078431372549" d="M 18.5 88 L 19 95.5 L 18 95.5 L 18.5 88 Z " /><path fill="rgb(81,104,177)" stroke="rgb(81,104,177)" stroke-width="1" opacity="0.996078431372549" d="M 51.5 88 L 71 89.5 L 53.5 90 L 51.5 91 L 51.5 90 L 53 89.5 L 51.5 88 Z " /><path fill="rgb(81,104,177)" stroke="rgb(81,104,177)" stroke-width="1" opacity="0.996078431372549" d="M 37.5 89 L 50 90.5 L 35.5 91 L 35.5 90 L 37.5 89 Z " /><path fill="rgb(81,104,177)" stroke="rgb(81,104,177)" stroke-width="1" opacity="0.996078431372549" d="M 27.5 90 L 33 90.5 L 27.5 91 L 27.5 90 Z " /><path fill="rgb(81,104,177)" stroke="rgb(81,104,177)" stroke-width="1" opacity="0.996078431372549" d="M 21.5 98 L 49 98.5 L 21.5 99 L 21.5 98 Z " /><path fill="rgb(81,104,177)" stroke="rgb(81,104,177)" stroke-width="1" opacity="0.996078431372549" d="M 50 98 L 52 98.5 L 50 99.5 L 50 98 Z " /><path fill="rgb(81,104,177)" stroke="rgb(81,104,177)" stroke-width="1" opacity="0.996078431372549" d="M 54.5 99 L 56.5 100 L 58 99.5 Q 58.8 101.8 56.5 101 L 55.5 100 L 53 101.5 L 54.5 99 Z " /><path fill="rgb(81,104,177)" stroke="rgb(81,104,177)" stroke-width="1" opacity="0.996078431372549" d="M 63.5 99 L 83 99.5 L 82.5 101 L 86 101.5 L 84 102.5 L 87 103 L 87.5 106 Q 88.7 103.8 90 106.5 L 88 106.5 L 87.5 108 L 86.5 106 L 85.5 109 L 83 108 L 81.5 111 L 68.5 114 L 68.5 113 L 70 112.5 L 70 106.5 L 69 104.5 L 70.5 104 L 72 104.5 L 70.5 101 L 65.5 102 L 65.5 100 Q 62.5 100.5 63.5 99 Z " /><path fill="rgb(81,104,177)" stroke="rgb(81,104,177)" stroke-width="1" opacity="0.996078431372549" d="M 58.5 114 L 65 114.5 L 58.5 115 L 58.5 114 Z " /><path fill="rgb(4,12,47)" stroke="rgb(4,12,47)" stroke-width="1" opacity="0.5450980392156862" d="M 60.5 1 Q 65.8 0.2 67.5 3 L 73.5 3 L 88.5 8 Q 101.5 14 110 24.5 Q 118 33.5 122 46.5 L 124 57.5 L 124 69.5 Q 121.5 71 123 76.5 L 117 92.5 L 102.5 110 Q 93.4 117.9 80.5 122 L 71.5 124 L 53.5 124 Q 30.1 119.4 17 104.5 Q 8.3 95.2 4 81.5 L 2 73.5 L 2 54.5 L 1 53.5 L 3 50.5 L 5 40.5 L 10 30.5 L 23.5 15 L 41.5 5 L 60.5 1 Z M 53 4 L 36 9 L 24 17 Q 8 29 4 52 L 4 69 L 5 74 Q 8 87 16 96 Q 28 111 52 116 Q 65 118 74 115 Q 86 112 95 105 Q 111 93 116 70 L 116 51 L 115 46 L 105 26 Q 96 14 83 8 L 69 4 L 53 4 Z " /><path fill="rgb(4,12,47)" stroke="rgb(4,12,47)" stroke-width="1" opacity="0.5450980392156862" d="M 0.5 108 Q 3.5 109.5 2 115.5 L 4.5 118 L 7.5 120 L 9.5 121 L 9.5 119 L 13 119 Q 11.9 121.7 14.5 121 L 15.5 123 L 13.5 122 Q 12 124.5 6.5 123 L 4.5 122 Q 3.4 124.8 0 124 L 0.5 108 Z " /></svg>